<?xml version="1.0"?>
<svg xmlns="http://www.w3.org/2000/svg" height="512px" viewBox="-117 -21 682 682.6646" width="512px"><g><path d="m431.25 639.996094h-426.664062c-5.890626 0-10.671876-4.773438-10.671876-10.660156v-618.667969c0-5.886719 4.78125-10.667969 10.671876-10.667969h330.660156c2.828125 0 5.546875 1.125 7.546875 3.125l96 96c2 2.007812 3.125 4.71875 3.125 7.542969v522.667969c0 5.886718-4.78125 10.660156-10.667969 10.660156zm-416-21.332032h405.335938v-507.582031l-89.753907-89.75h-315.582031zm0 0" data-original="#000000" class="active-path" data-old_color="#000000" fill="#FFFFFF"/><path d="m431.25 117.332031h-96.003906c-5.886719 0-10.664063-4.773437-10.664063-10.664062v-96c0-4.308594 2.605469-8.203125 6.582031-9.855469 3.992188-1.652344 8.574219-.734375 11.628907 2.3125l96 96c3.046875 3.050781 3.964843 7.636719 2.3125 11.625-1.652344 3.992188-5.535157 6.582031-9.855469 6.582031zm-85.332031-21.332031h59.582031l-59.582031-59.585938zm0 0" data-original="#000000" class="active-path" data-old_color="#000000" fill="#FFFFFF"/><path d="m431.25 639.996094h-426.664062c-5.890626 0-10.671876-4.773438-10.671876-10.660156v-192.003907c0-5.886719 4.78125-10.664062 10.671876-10.664062h426.664062c5.886719 0 10.667969 4.777343 10.667969 10.664062v192.003907c0 5.886718-4.78125 10.660156-10.667969 10.660156zm-416-21.332032h405.335938v-170.664062h-405.335938zm0 0" data-original="#000000" class="active-path" data-old_color="#000000" fill="#FFFFFF"/><path d="m228.582031 256h-21.332031c-17.640625 0-32.003906-14.355469-32.003906-31.996094v-53.335937c0-17.640625 14.347656-32 32.003906-32h21.332031c17.640625 0 32.003907 14.359375 32.003907 32v53.34375c0 17.644531-14.351563 31.988281-32.003907 31.988281zm-21.332031-96c-5.878906 0-10.667969 4.78125-10.667969 10.667969v53.34375c0 5.875 4.777344 10.664062 10.667969 10.664062h21.332031c5.878907 0 10.664063-4.773437 10.664063-10.664062v-53.34375c0-5.878907-4.773438-10.667969-10.664063-10.667969zm0 0" data-original="#000000" class="active-path" data-old_color="#000000" fill="#FFFFFF"/><path d="m303.25 192c-2.734375 0-5.464844-1.042969-7.542969-3.125-4.171875-4.167969-4.171875-10.910156 0-15.082031l32-32c4.160157-4.171875 10.925781-4.171875 15.085938 0 4.167969 4.171875 4.167969 10.910156 0 15.082031l-32.003907 32c-2.078124 2.089844-4.808593 3.125-7.539062 3.125zm0 0" data-original="#000000" class="active-path" data-old_color="#000000" fill="#FFFFFF"/><path d="m335.246094 256c-5.886719 0-10.664063-4.773438-10.664063-10.664062v-96c0-5.890626 4.777344-10.667969 10.664063-10.667969 5.890625 0 10.671875 4.777343 10.671875 10.667969v96c0 5.890624-4.78125 10.664062-10.671875 10.664062zm0 0" data-original="#000000" class="active-path" data-old_color="#000000" fill="#FFFFFF"/><path d="m356.582031 256h-42.667969c-5.886718 0-10.664062-4.773438-10.664062-10.664062 0-5.886719 4.777344-10.667969 10.664062-10.667969h42.667969c5.886719 0 10.667969 4.78125 10.667969 10.667969 0 5.890624-4.78125 10.664062-10.667969 10.664062zm0 0" data-original="#000000" class="active-path" data-old_color="#000000" fill="#FFFFFF"/><path d="m121.917969 256h-42.671875c-5.882813 0-10.664063-4.773438-10.664063-10.664062 0-5.886719 4.78125-10.667969 10.664063-10.667969h42.671875c5.882812 0 10.664062 4.78125 10.664062 10.667969 0 5.890624-4.78125 10.664062-10.664062 10.664062zm0 0" data-original="#000000" class="active-path" data-old_color="#000000" fill="#FFFFFF"/><path d="m68.582031 192c-2.726562 0-5.460937-1.042969-7.542969-3.125-4.167968-4.167969-4.167968-10.910156 0-15.082031l32.003907-32c4.160156-4.171875 10.921875-4.171875 15.082031 0 4.167969 4.171875 4.167969 10.910156 0 15.082031l-32.003906 32c-2.078125 2.089844-4.808594 3.125-7.539063 3.125zm0 0" data-original="#000000" class="active-path" data-old_color="#000000" fill="#FFFFFF"/><path d="m100.585938 256c-5.890626 0-10.667969-4.773438-10.667969-10.664062v-96c0-5.890626 4.777343-10.667969 10.667969-10.667969 5.882812 0 10.664062 4.777343 10.664062 10.667969v96c0 5.890624-4.78125 10.664062-10.664062 10.664062zm0 0" data-original="#000000" class="active-path" data-old_color="#000000" fill="#FFFFFF"/><path d="m228.582031 405.335938h-21.332031c-17.640625 0-32.003906-14.359376-32.003906-32.003907v-53.332031c0-17.640625 14.347656-31.996094 32.003906-31.996094h21.332031c17.640625 0 32.003907 14.355469 32.003907 31.996094v53.34375c0 17.640625-14.351563 31.992188-32.003907 31.992188zm-21.332031-96c-5.878906 0-10.667969 4.78125-10.667969 10.664062v53.34375c0 5.878906 4.777344 10.667969 10.667969 10.667969h21.332031c5.878907 0 10.664063-4.78125 10.664063-10.667969v-53.34375c0-5.875-4.773438-10.664062-10.664063-10.664062zm0 0" data-original="#000000" class="active-path" data-old_color="#000000" fill="#FFFFFF"/><path d="m303.25 341.332031c-2.734375 0-5.464844-1.046875-7.542969-3.125-4.171875-4.171875-4.171875-10.90625 0-15.082031l32-31.996094c4.160157-4.171875 10.925781-4.171875 15.085938 0 4.167969 4.167969 4.167969 10.910156 0 15.082032l-32.003907 31.996093c-2.078124 2.09375-4.808593 3.125-7.539062 3.125zm0 0" data-original="#000000" class="active-path" data-old_color="#000000" fill="#FFFFFF"/><path d="m335.246094 405.335938c-5.886719 0-10.664063-4.78125-10.664063-10.667969v-96c0-5.890625 4.777344-10.664063 10.664063-10.664063 5.890625 0 10.671875 4.773438 10.671875 10.664063v96c0 5.886719-4.78125 10.667969-10.671875 10.667969zm0 0" data-original="#000000" class="active-path" data-old_color="#000000" fill="#FFFFFF"/><path d="m356.582031 405.335938h-42.667969c-5.886718 0-10.664062-4.78125-10.664062-10.667969 0-5.890625 4.777344-10.664063 10.664062-10.664063h42.667969c5.886719 0 10.667969 4.773438 10.667969 10.664063 0 5.886719-4.78125 10.667969-10.667969 10.667969zm0 0" data-original="#000000" class="active-path" data-old_color="#000000" fill="#FFFFFF"/><path d="m111.25 405.335938h-21.332031c-17.644531 0-32.003907-14.359376-32.003907-32.003907v-53.332031c0-17.640625 14.351563-31.996094 32.003907-31.996094h21.332031c17.640625 0 32 14.355469 32 31.996094v53.34375c0 17.640625-14.347656 31.992188-32 31.992188zm-21.332031-96c-5.878907 0-10.671875 4.78125-10.671875 10.664062v53.34375c0 5.878906 4.78125 10.667969 10.671875 10.667969h21.332031c5.878906 0 10.667969-4.78125 10.667969-10.667969v-53.34375c0-5.875-4.78125-10.664062-10.667969-10.664062zm0 0" data-original="#000000" class="active-path" data-old_color="#000000" fill="#FFFFFF"/><path d="m105.917969 544.003906h-37.335938c-5.886719 0-10.667969-4.78125-10.667969-10.671875v-53.332031c0-5.886719 4.78125-10.664062 10.667969-10.664062h37.335938c20.585937 0 37.332031 16.746093 37.332031 37.332031 0 20.585937-16.746094 37.335937-37.332031 37.335937zm-26.671875-21.335937h26.671875c8.816406 0 16-7.179688 16-16 0-8.824219-7.183594-16-16-16h-26.671875zm0 0" data-original="#000000" class="active-path" data-old_color="#000000" fill="#FFFFFF"/><path d="m105.917969 597.332031h-37.335938c-5.886719 0-10.667969-4.773437-10.667969-10.664062v-53.335938c0-5.886719 4.78125-10.664062 10.667969-10.664062h37.335938c20.585937 0 37.332031 16.746093 37.332031 37.332031 0 20.589844-16.746094 37.332031-37.332031 37.332031zm-26.671875-21.332031h26.671875c8.816406 0 16-7.179688 16-16s-7.183594-15.996094-16-15.996094h-26.671875zm0 0" data-original="#000000" class="active-path" data-old_color="#000000" fill="#FFFFFF"/><path d="m249.914062 490.667969h-63.996093c-5.890625 0-10.671875-4.78125-10.671875-10.667969s4.78125-10.664062 10.671875-10.664062h63.996093c5.890626 0 10.671876 4.777343 10.671876 10.664062s-4.78125 10.667969-10.671876 10.667969zm0 0" data-original="#000000" class="active-path" data-old_color="#000000" fill="#FFFFFF"/><path d="m249.914062 597.332031h-63.996093c-5.890625 0-10.671875-4.773437-10.671875-10.664062 0-5.886719 4.78125-10.667969 10.671875-10.667969h63.996093c5.890626 0 10.671876 4.78125 10.671876 10.667969 0 5.890625-4.78125 10.664062-10.671876 10.664062zm0 0" data-original="#000000" class="active-path" data-old_color="#000000" fill="#FFFFFF"/><path d="m217.914062 597.332031c-5.882812 0-10.664062-4.773437-10.664062-10.664062v-106.667969c0-5.886719 4.78125-10.664062 10.664062-10.664062 5.886719 0 10.667969 4.777343 10.667969 10.664062v106.667969c0 5.890625-4.78125 10.664062-10.667969 10.664062zm0 0" data-original="#000000" class="active-path" data-old_color="#000000" fill="#FFFFFF"/><path d="m367.25 597.332031c-3.683594 0-7.191406-1.910156-9.140625-5.171875l-44.195313-73.640625v68.148438c0 5.890625-4.773437 10.664062-10.664062 10.664062-5.886719 0-10.667969-4.773437-10.667969-10.664062v-106.667969c0-4.800781 3.199219-9 7.816407-10.28125 4.621093-1.269531 9.527343.679688 11.992187 4.785156l44.191406 73.660156v-68.164062c0-5.886719 4.777344-10.664062 10.667969-10.664062 5.886719 0 10.664062 4.777343 10.664062 10.664062v106.667969c0 4.800781-3.199218 9-7.816406 10.285156-.949218.261719-1.902344.378906-2.847656.378906zm0 0" data-original="#000000" class="active-path" data-old_color="#000000" fill="#FFFFFF"/></g> </svg>
