<?xml version="1.0"?>
<svg xmlns="http://www.w3.org/2000/svg" height="512px" viewBox="-117 -21 682 682.66784" width="512px"><g><path d="m431.25 640h-426.664062c-5.886719 0-10.667969-4.777344-10.667969-10.667969v-618.664062c0-5.882813 4.78125-10.66406275 10.667969-10.66406275h330.667968c2.820313 0 5.539063 1.12109375 7.539063 3.12499975l96 96c2 2.003906 3.125 4.714844 3.125 7.539063v522.664062c0 5.890625-4.78125 10.667969-10.667969 10.667969zm-415.996094-21.332031h405.332032v-507.578125l-89.753907-89.75h-315.578125zm0 0" data-original="#000000" class="active-path" data-old_color="#000000" fill="#FFFFFF"/><path d="m431.25 117.339844h-95.996094c-5.890625 0-10.671875-4.78125-10.671875-10.671875v-96c0-4.304688 2.605469-8.195313 6.582031-9.851563 4-1.65625 8.566407-.7460935 11.628907 2.3125l96 96c3.050781 3.054688 3.964843 7.636719 2.3125 11.628906-1.652344 3.976563-5.546875 6.582032-9.855469 6.582032zm-85.332031-21.335938h59.582031l-59.582031-59.582031zm0 0" data-original="#000000" class="active-path" data-old_color="#000000" fill="#FFFFFF"/><path d="m431.25 640h-426.664062c-5.886719 0-10.667969-4.777344-10.667969-10.667969v-191.996093c0-5.886719 4.78125-10.667969 10.667969-10.667969h426.664062c5.886719 0 10.667969 4.78125 10.667969 10.667969v191.996093c0 5.890625-4.78125 10.667969-10.667969 10.667969zm-415.996094-21.332031h405.332032v-170.667969h-405.332032zm0 0" data-original="#000000" class="active-path" data-old_color="#000000" fill="#FFFFFF"/><path d="m143.253906 213.339844h-74.667968c-5.890626 0-10.664063-4.78125-10.664063-10.667969v-42.667969c0-5.886718 4.773437-10.667968 10.664063-10.667968h74.667968c5.886719 0 10.664063 4.78125 10.664063 10.667968v42.667969c0 5.886719-4.777344 10.667969-10.664063 10.667969zm-64-21.339844h53.328125v-21.332031h-53.328125zm0 0" data-original="#000000" class="active-path" data-old_color="#000000" fill="#FFFFFF"/><path d="m217.917969 213.339844h-74.664063c-5.890625 0-10.671875-4.78125-10.671875-10.667969v-42.667969c0-5.886718 4.78125-10.667968 10.671875-10.667968h74.664063c5.890625 0 10.664062 4.78125 10.664062 10.667968v42.667969c0 5.886719-4.773437 10.667969-10.664062 10.667969zm-64-21.339844h53.332031v-21.332031h-53.332031zm0 0" data-original="#000000" class="active-path" data-old_color="#000000" fill="#FFFFFF"/><path d="m292.582031 213.339844h-74.664062c-5.886719 0-10.667969-4.78125-10.667969-10.667969v-42.667969c0-5.886718 4.78125-10.667968 10.667969-10.667968h74.664062c5.890625 0 10.667969 4.78125 10.667969 10.667968v42.667969c0 5.886719-4.777344 10.667969-10.667969 10.667969zm-64-21.339844h53.335938v-21.332031h-53.335938zm0 0" data-original="#000000" class="active-path" data-old_color="#000000" fill="#FFFFFF"/><path d="m367.25 213.339844h-74.667969c-5.882812 0-10.664062-4.78125-10.664062-10.667969v-42.667969c0-5.886718 4.78125-10.667968 10.664062-10.667968h74.667969c5.886719 0 10.667969 4.78125 10.667969 10.667968v42.667969c0 5.886719-4.78125 10.667969-10.667969 10.667969zm-64-21.339844h53.335938v-21.332031h-53.335938zm0 0" data-original="#000000" class="active-path" data-old_color="#000000" fill="#FFFFFF"/><path d="m143.253906 256.003906h-74.667968c-5.890626 0-10.664063-4.78125-10.664063-10.667968v-42.664063c0-5.890625 4.773437-10.671875 10.664063-10.671875h74.667968c5.886719 0 10.664063 4.78125 10.664063 10.671875v42.664063c0 5.886718-4.777344 10.667968-10.664063 10.667968zm-64-21.332031h53.328125v-21.332031h-53.328125zm0 0" data-original="#000000" class="active-path" data-old_color="#000000" fill="#FFFFFF"/><path d="m217.917969 256.003906h-74.664063c-5.890625 0-10.671875-4.78125-10.671875-10.667968v-42.664063c0-5.890625 4.78125-10.671875 10.671875-10.671875h74.664063c5.890625 0 10.664062 4.78125 10.664062 10.671875v42.664063c0 5.886718-4.773437 10.667968-10.664062 10.667968zm-64-21.332031h53.332031v-21.332031h-53.332031zm0 0" data-original="#000000" class="active-path" data-old_color="#000000" fill="#FFFFFF"/><path d="m292.582031 256.003906h-74.664062c-5.886719 0-10.667969-4.78125-10.667969-10.667968v-42.664063c0-5.890625 4.78125-10.671875 10.667969-10.671875h74.664062c5.890625 0 10.667969 4.78125 10.667969 10.671875v42.664063c0 5.886718-4.777344 10.667968-10.667969 10.667968zm-64-21.332031h53.335938v-21.332031h-53.335938zm0 0" data-original="#000000" class="active-path" data-old_color="#000000" fill="#FFFFFF"/><path d="m367.25 256.003906h-74.667969c-5.882812 0-10.664062-4.78125-10.664062-10.667968v-42.664063c0-5.890625 4.78125-10.671875 10.664062-10.671875h74.667969c5.886719 0 10.667969 4.78125 10.667969 10.671875v42.664063c0 5.886718-4.78125 10.667968-10.667969 10.667968zm-64-21.332031h53.335938v-21.332031h-53.335938zm0 0" data-original="#000000" class="active-path" data-old_color="#000000" fill="#FFFFFF"/><path d="m143.253906 298.671875h-74.667968c-5.890626 0-10.664063-4.78125-10.664063-10.671875v-42.664062c0-5.890626 4.773437-10.664063 10.664063-10.664063h74.667968c5.886719 0 10.664063 4.773437 10.664063 10.664063v42.664062c0 5.890625-4.777344 10.671875-10.664063 10.671875zm-64-21.335937h53.328125v-21.332032h-53.328125zm0 0" data-original="#000000" class="active-path" data-old_color="#000000" fill="#FFFFFF"/><path d="m217.917969 298.671875h-74.664063c-5.890625 0-10.671875-4.78125-10.671875-10.671875v-42.664062c0-5.890626 4.78125-10.664063 10.671875-10.664063h74.664063c5.890625 0 10.664062 4.773437 10.664062 10.664063v42.664062c0 5.890625-4.773437 10.671875-10.664062 10.671875zm-64-21.335937h53.332031v-21.332032h-53.332031zm0 0" data-original="#000000" class="active-path" data-old_color="#000000" fill="#FFFFFF"/><path d="m292.582031 298.671875h-74.664062c-5.886719 0-10.667969-4.78125-10.667969-10.671875v-42.664062c0-5.890626 4.78125-10.664063 10.667969-10.664063h74.664062c5.890625 0 10.667969 4.773437 10.667969 10.664063v42.664062c0 5.890625-4.777344 10.671875-10.667969 10.671875zm-64-21.335937h53.335938v-21.332032h-53.335938zm0 0" data-original="#000000" class="active-path" data-old_color="#000000" fill="#FFFFFF"/><path d="m367.25 298.671875h-74.667969c-5.882812 0-10.664062-4.78125-10.664062-10.671875v-42.664062c0-5.890626 4.78125-10.664063 10.664062-10.664063h74.667969c5.886719 0 10.667969 4.773437 10.667969 10.664063v42.664062c0 5.890625-4.78125 10.671875-10.667969 10.671875zm-64-21.335937h53.335938v-21.332032h-53.335938zm0 0" data-original="#000000" class="active-path" data-old_color="#000000" fill="#FFFFFF"/><path d="m143.253906 341.335938h-74.667968c-5.890626 0-10.664063-4.78125-10.664063-10.667969v-42.667969c0-5.886719 4.773437-10.664062 10.664063-10.664062h74.667968c5.886719 0 10.664063 4.777343 10.664063 10.664062v42.667969c0 5.886719-4.777344 10.667969-10.664063 10.667969zm-64-21.332032h53.328125v-21.332031h-53.328125zm0 0" data-original="#000000" class="active-path" data-old_color="#000000" fill="#FFFFFF"/><path d="m217.917969 341.335938h-74.664063c-5.890625 0-10.671875-4.78125-10.671875-10.667969v-42.667969c0-5.886719 4.78125-10.664062 10.671875-10.664062h74.664063c5.890625 0 10.664062 4.777343 10.664062 10.664062v42.667969c0 5.886719-4.773437 10.667969-10.664062 10.667969zm-64-21.332032h53.332031v-21.332031h-53.332031zm0 0" data-original="#000000" class="active-path" data-old_color="#000000" fill="#FFFFFF"/><path d="m292.582031 341.335938h-74.664062c-5.886719 0-10.667969-4.78125-10.667969-10.667969v-42.667969c0-5.886719 4.78125-10.664062 10.667969-10.664062h74.664062c5.890625 0 10.667969 4.777343 10.667969 10.664062v42.667969c0 5.886719-4.777344 10.667969-10.667969 10.667969zm-64-21.332032h53.335938v-21.332031h-53.335938zm0 0" data-original="#000000" class="active-path" data-old_color="#000000" fill="#FFFFFF"/><path d="m367.25 341.335938h-74.667969c-5.882812 0-10.664062-4.78125-10.664062-10.667969v-42.667969c0-5.886719 4.78125-10.664062 10.664062-10.664062h74.667969c5.886719 0 10.667969 4.777343 10.667969 10.664062v42.667969c0 5.886719-4.78125 10.667969-10.667969 10.667969zm-64-21.332032h53.335938v-21.332031h-53.335938zm0 0" data-original="#000000" class="active-path" data-old_color="#000000" fill="#FFFFFF"/><path d="m143.253906 384h-74.667968c-5.890626 0-10.664063-4.777344-10.664063-10.660156v-42.671875c0-5.882813 4.773437-10.664063 10.664063-10.664063h74.667968c5.886719 0 10.664063 4.78125 10.664063 10.664063v42.671875c0 5.882812-4.777344 10.660156-10.664063 10.660156zm-64-21.332031h53.328125v-21.332031h-53.328125zm0 0" data-original="#000000" class="active-path" data-old_color="#000000" fill="#FFFFFF"/><path d="m217.917969 384h-74.664063c-5.890625 0-10.671875-4.777344-10.671875-10.660156v-42.671875c0-5.882813 4.78125-10.664063 10.671875-10.664063h74.664063c5.890625 0 10.664062 4.78125 10.664062 10.664063v42.671875c0 5.882812-4.773437 10.660156-10.664062 10.660156zm-64-21.332031h53.332031v-21.332031h-53.332031zm0 0" data-original="#000000" class="active-path" data-old_color="#000000" fill="#FFFFFF"/><path d="m292.582031 384h-74.664062c-5.886719 0-10.667969-4.777344-10.667969-10.660156v-42.671875c0-5.882813 4.78125-10.664063 10.667969-10.664063h74.664062c5.890625 0 10.667969 4.78125 10.667969 10.664063v42.671875c0 5.882812-4.777344 10.660156-10.667969 10.660156zm-64-21.332031h53.335938v-21.332031h-53.335938zm0 0" data-original="#000000" class="active-path" data-old_color="#000000" fill="#FFFFFF"/><path d="m367.25 384h-74.667969c-5.882812 0-10.664062-4.777344-10.664062-10.660156v-42.671875c0-5.882813 4.78125-10.664063 10.664062-10.664063h74.667969c5.886719 0 10.667969 4.78125 10.667969 10.664063v42.671875c0 5.882812-4.78125 10.660156-10.667969 10.660156zm-64-21.332031h53.335938v-21.332031h-53.335938zm0 0" data-original="#000000" class="active-path" data-old_color="#000000" fill="#FFFFFF"/><path d="m132.582031 597.335938h-42.566406c-17.695313 0-32.09375-14.390626-32.09375-32.09375v-63.808594c0-17.699219 14.398437-32.101563 32.09375-32.101563h42.566406c5.890625 0 10.671875 4.78125 10.671875 10.671875 0 5.886719-4.78125 10.664063-10.671875 10.664063h-42.566406c-5.941406 0-10.761719 4.832031-10.761719 10.765625v63.808594c0 5.925781 4.820313 10.761718 10.761719 10.761718h42.566406c5.890625 0 10.671875 4.773438 10.671875 10.664063 0 5.886719-4.78125 10.667969-10.671875 10.667969zm0 0" data-original="#000000" class="active-path" data-old_color="#000000" fill="#FFFFFF"/><path d="m212.582031 597.335938h-37.328125c-5.890625 0-10.667968-4.78125-10.667968-10.667969 0-5.890625 4.777343-10.664063 10.667968-10.664063h37.328125c8.824219 0 16-7.179687 16-16.003906 0-8.820312-7.175781-16-16-16h-10.664062c-20.585938 0-37.332031-16.746094-37.332031-37.332031 0-20.585938 16.746093-37.335938 37.332031-37.335938h37.335937c5.886719 0 10.664063 4.78125 10.664063 10.671875 0 5.886719-4.777344 10.664063-10.664063 10.664063h-37.335937c-8.824219 0-16 7.179687-16 16 0 8.824219 7.175781 16 16 16h10.664062c20.589844 0 37.335938 16.746093 37.335938 37.332031s-16.746094 37.335938-37.335938 37.335938zm0 0" data-original="#000000" class="active-path" data-old_color="#000000" fill="#FFFFFF"/><path d="m324.582031 597.335938c-4.359375 0-8.273437-2.65625-9.90625-6.699219l-42.667969-106.664063c-2.183593-5.472656.472657-11.683594 5.941407-13.867187 5.484375-2.179688 11.679687.476562 13.867187 5.9375l32.765625 81.90625 32.761719-81.90625c2.195312-5.460938 8.382812-8.136719 13.867188-5.9375 5.46875 2.195312 8.125 8.394531 5.9375 13.867187l-42.667969 106.664063c-1.621094 4.042969-5.535157 6.699219-9.898438 6.699219zm0 0" data-original="#000000" class="active-path" data-old_color="#000000" fill="#FFFFFF"/></g> </svg>
