<?xml version="1.0"?>
<svg xmlns="http://www.w3.org/2000/svg" height="512px" viewBox="-117 -21 681 681.335" width="512px"><g><path d="m227.96875 500.355469c-58.703125 0-106.457031-47.753907-106.457031-106.457031 0-58.699219 47.753906-106.457032 106.457031-106.457032 58.699219 0 106.457031 47.757813 106.457031 106.457032 0 58.703124-47.757812 106.457031-106.457031 106.457031zm0-191.621094c-46.960938 0-85.164062 38.203125-85.164062 85.164063 0 46.957031 38.203124 85.164062 85.164062 85.164062s85.164062-38.207031 85.164062-85.164062c0-46.960938-38.203124-85.164063-85.164062-85.164063zm0 0" data-original="#000000" class="active-path" data-old_color="#000000" fill="#FFFFFF"/><path d="m366.359375 552.507812c-2.722656 0-5.449219-1.042968-7.523437-3.117187l-73.984376-73.976563c-4.167968-4.164062-4.167968-10.890624 0-15.054687 4.160157-4.160156 10.886719-4.160156 15.046876 0l73.992187 73.976563c4.160156 4.164062 4.160156 10.890624 0 15.054687-2.078125 2.085937-4.804687 3.117187-7.53125 3.117187zm0 0" data-original="#000000" class="active-path" data-old_color="#000000" fill="#FFFFFF"/><path d="m270.550781 361.964844h-85.164062c-5.878907 0-10.648438-4.761719-10.648438-10.648438 0-5.886718 4.769531-10.644531 10.648438-10.644531h85.164062c5.878907 0 10.644531 4.757813 10.644531 10.644531 0 5.886719-4.765624 10.648438-10.644531 10.648438zm0 0" data-original="#000000" class="active-path" data-old_color="#000000" fill="#FFFFFF"/><path d="m185.386719 372.605469c-5.878907 0-10.648438-4.753907-10.648438-10.640625v-10.648438c0-5.886718 4.769531-10.644531 10.648438-10.644531 5.875 0 10.640625 4.757813 10.640625 10.644531v10.648438c0 5.886718-4.765625 10.640625-10.640625 10.640625zm0 0" data-original="#000000" class="active-path" data-old_color="#000000" fill="#FFFFFF"/><path d="m270.550781 372.605469c-5.875 0-10.648437-4.753907-10.648437-10.640625v-10.648438c0-5.886718 4.773437-10.644531 10.648437-10.644531 5.878907 0 10.644531 4.757813 10.644531 10.644531v10.648438c0 5.886718-4.765624 10.640625-10.644531 10.640625zm0 0" data-original="#000000" class="active-path" data-old_color="#000000" fill="#FFFFFF"/><path d="m227.96875 447.128906c-5.878906 0-10.648438-4.761718-10.648438-10.648437v-85.164063c0-5.886718 4.769532-10.644531 10.648438-10.644531s10.644531 4.757813 10.644531 10.644531v85.164063c0 5.886719-4.765625 10.648437-10.644531 10.648437zm0 0" data-original="#000000" class="active-path" data-old_color="#000000" fill="#FFFFFF"/><path d="m249.261719 447.128906h-42.585938c-5.875 0-10.648437-4.761718-10.648437-10.648437s4.773437-10.644531 10.648437-10.644531h42.585938c5.875 0 10.640625 4.757812 10.640625 10.644531s-4.765625 10.648437-10.640625 10.648437zm0 0" data-original="#000000" class="active-path" data-old_color="#000000" fill="#FFFFFF"/><path d="m430.234375 638.75h-425.828125c-5.875 0-10.644531-4.757812-10.644531-10.648438v-617.449218c0-5.886719 4.769531-10.6406252 10.644531-10.6406252h330.019531c2.820313 0 5.535157 1.1132812 7.523438 3.1171872l95.816406 95.808594c1.996094 1.992188 3.117187 4.699219 3.117187 7.527344v521.636718c0 5.890626-4.769531 10.648438-10.648437 10.648438zm-415.179687-21.289062h404.535156v-506.589844l-89.574219-89.570313h-314.960937zm0 0" data-original="#000000" class="active-path" data-old_color="#000000" fill="#FFFFFF"/><path d="m430.234375 117.109375h-95.808594c-5.878906 0-10.648437-4.753906-10.648437-10.644531v-95.8125c0-4.296875 2.597656-8.195313 6.570312-9.832032 3.980469-1.664062 8.546875-.7460932 11.601563 2.308594l95.816406 95.808594c3.039063 3.046875 3.957031 7.621094 2.308594 11.601562-1.652344 3.984376-5.535157 6.570313-9.839844 6.570313zm-85.164063-21.289063h59.46875l-59.46875-59.464843zm0 0" data-original="#000000" class="active-path" data-old_color="#000000" fill="#FFFFFF"/><path d="m132.15625 308.734375h-63.875c-5.878906 0-10.644531-4.757813-10.644531-10.644531 0-5.886719 4.765625-10.648438 10.644531-10.648438h63.875c5.875 0 10.648438 4.761719 10.648438 10.648438 0 5.886718-4.773438 10.644531-10.648438 10.644531zm0 0" data-original="#000000" class="active-path" data-old_color="#000000" fill="#FFFFFF"/><path d="m366.359375 308.734375h-21.289063c-5.878906 0-10.644531-4.757813-10.644531-10.644531 0-5.886719 4.765625-10.648438 10.644531-10.648438h21.289063c5.878906 0 10.648437 4.761719 10.648437 10.648438 0 5.886718-4.769531 10.644531-10.648437 10.644531zm0 0" data-original="#000000" class="active-path" data-old_color="#000000" fill="#FFFFFF"/><path d="m366.359375 351.316406h-53.226563c-5.875 0-10.648437-4.757812-10.648437-10.644531s4.773437-10.648437 10.648437-10.648437h53.226563c5.878906 0 10.648437 4.761718 10.648437 10.648437s-4.769531 10.644531-10.648437 10.644531zm0 0" data-original="#000000" class="active-path" data-old_color="#000000" fill="#FFFFFF"/><path d="m110.863281 351.316406h-42.582031c-5.878906 0-10.644531-4.757812-10.644531-10.644531s4.765625-10.648437 10.644531-10.648437h42.582031c5.878907 0 10.648438 4.761718 10.648438 10.648437s-4.769531 10.644531-10.648438 10.644531zm0 0" data-original="#000000" class="active-path" data-old_color="#000000" fill="#FFFFFF"/><path d="m132.15625 393.898438h-63.875c-5.878906 0-10.644531-4.757813-10.644531-10.644532 0-5.886718 4.765625-10.648437 10.644531-10.648437h63.875c5.875 0 10.648438 4.761719 10.648438 10.648437 0 5.886719-4.773438 10.644532-10.648438 10.644532zm0 0" data-original="#000000" class="active-path" data-old_color="#000000" fill="#FFFFFF"/><path d="m366.359375 266.148438h-85.164063c-5.878906 0-10.644531-4.753907-10.644531-10.640626 0-5.886718 4.765625-10.648437 10.644531-10.648437h85.164063c5.878906 0 10.648437 4.761719 10.648437 10.648437 0 5.886719-4.769531 10.640626-10.648437 10.640626zm0 0" data-original="#000000" class="active-path" data-old_color="#000000" fill="#FFFFFF"/><path d="m238.613281 266.148438h-106.457031c-5.878906 0-10.644531-4.753907-10.644531-10.640626 0-5.886718 4.765625-10.648437 10.644531-10.648437h106.457031c5.875 0 10.648438 4.761719 10.648438 10.648437 0 5.886719-4.773438 10.640626-10.648438 10.640626zm0 0" data-original="#000000" class="active-path" data-old_color="#000000" fill="#FFFFFF"/><path d="m281.195312 223.566406h-117.101562c-5.875 0-10.648438-4.753906-10.648438-10.644531 0-5.886719 4.773438-10.644531 10.648438-10.644531h117.101562c5.875 0 10.648438 4.757812 10.648438 10.644531 0 5.890625-4.773438 10.644531-10.648438 10.644531zm0 0" data-original="#000000" class="active-path" data-old_color="#000000" fill="#FFFFFF"/><path d="m89.570312 266.148438h-21.289062c-5.878906 0-10.644531-4.753907-10.644531-10.640626 0-5.886718 4.765625-10.648437 10.644531-10.648437h21.289062c5.878907 0 10.648438 4.761719 10.648438 10.648437 0 5.886719-4.769531 10.640626-10.648438 10.640626zm0 0" data-original="#000000" class="active-path" data-old_color="#000000" fill="#FFFFFF"/><path d="m121.511719 223.566406h-53.230469c-5.878906 0-10.644531-4.753906-10.644531-10.644531 0-5.886719 4.765625-10.644531 10.644531-10.644531h53.230469c5.878906 0 10.644531 4.757812 10.644531 10.644531 0 5.890625-4.765625 10.644531-10.644531 10.644531zm0 0" data-original="#000000" class="active-path" data-old_color="#000000" fill="#FFFFFF"/><path d="m366.359375 223.566406h-42.582031c-5.878906 0-10.644532-4.753906-10.644532-10.644531 0-5.886719 4.765626-10.644531 10.644532-10.644531h42.582031c5.878906 0 10.648437 4.757812 10.648437 10.644531 0 5.890625-4.769531 10.644531-10.648437 10.644531zm0 0" data-original="#000000" class="active-path" data-old_color="#000000" fill="#FFFFFF"/></g> </svg>
