<?xml version="1.0"?>
<svg xmlns="http://www.w3.org/2000/svg" height="512px" viewBox="-117 -21 681 681.33176" width="512px"><g><path d="m430.234375 638.75h-425.828125c-5.878906 0-10.644531-4.757812-10.644531-10.644531v-617.453125c0-5.886719 4.765625-10.64843775 10.644531-10.64843775h330.019531c2.816407 0 5.53125 1.12109375 7.523438 3.12109375l95.808593 95.8125c2.003907 1.988281 3.121094 4.691406 3.121094 7.523438v521.644531c0 5.875-4.765625 10.644531-10.644531 10.644531zm-415.179687-21.292969h404.53125v-506.585937l-89.570313-89.574219h-314.960937zm0 0" data-original="#000000" class="active-path" data-old_color="#000000" fill="#FFFFFF"/><path d="m430.234375 117.109375h-95.808594c-5.878906 0-10.648437-4.761719-10.648437-10.648437v-95.808594c0-4.304688 2.597656-8.195313 6.570312-9.839844 3.96875-1.65625 8.554688-.7304688 11.601563 2.3125l95.808593 95.8125c3.046876 3.046875 3.964844 7.621094 2.3125 11.601562-1.648437 3.984376-5.523437 6.570313-9.835937 6.570313zm-85.164063-21.289063h59.46875l-59.46875-59.472656zm0 0" data-original="#000000" class="active-path" data-old_color="#000000" fill="#FFFFFF"/><path d="m430.234375 638.75h-425.828125c-5.878906 0-10.644531-4.757812-10.644531-10.644531v-191.625c0-5.886719 4.765625-10.648438 10.644531-10.648438h425.828125c5.878906 0 10.644531 4.761719 10.644531 10.648438v191.625c0 5.875-4.765625 10.644531-10.644531 10.644531zm-415.179687-21.292969h404.53125v-170.332031h-404.53125zm0 0" data-original="#000000" class="active-path" data-old_color="#000000" fill="#FFFFFF"/><path d="m355.710938 404.542969h-276.785157c-5.875 0-10.644531-4.757813-10.644531-10.644531v-244.855469c0-5.886719 4.769531-10.640625 10.644531-10.640625h276.785157c5.878906 0 10.648437 4.753906 10.648437 10.640625v244.855469c0 5.878906-4.769531 10.644531-10.648437 10.644531zm-266.140626-21.292969h255.5v-223.558594h-255.5zm0 0" data-original="#000000" class="active-path" data-old_color="#000000" fill="#FFFFFF"/><path d="m110.820312 596.164062h-21.152343c-17.660157 0-32.03125-14.371093-32.03125-32.03125v-63.683593c0-17.660157 14.371093-32.03125 32.03125-32.03125h42.484375c5.878906 0 10.648437 4.761719 10.648437 10.648437 0 5.886719-4.769531 10.640625-10.648437 10.640625h-42.484375c-5.929688 0-10.742188 4.816407-10.742188 10.730469v63.6875c0 5.929688 4.8125 10.738281 10.742188 10.738281h21.164062c5.886719 0 10.6875-4.789062 10.6875-10.6875v-31.894531c0-5.886719 4.765625-10.644531 10.644531-10.644531 5.875 0 10.648438 4.757812 10.648438 10.644531v31.894531c-.011719 17.644531-14.351562 31.988281-31.992188 31.988281zm0 0" data-original="#000000" class="active-path" data-old_color="#000000" fill="#FFFFFF"/><path d="m132.152344 542.9375h-21.289063c-5.878906 0-10.644531-4.757812-10.644531-10.644531 0-5.890625 4.765625-10.644531 10.644531-10.644531h21.289063c5.878906 0 10.648437 4.753906 10.648437 10.644531 0 5.886719-4.769531 10.644531-10.648437 10.644531zm0 0" data-original="#000000" class="active-path" data-old_color="#000000" fill="#FFFFFF"/><path d="m366.359375 489.707031h-63.875c-5.875 0-10.640625-4.753906-10.640625-10.640625 0-5.886718 4.765625-10.648437 10.640625-10.648437h63.875c5.878906 0 10.644531 4.761719 10.644531 10.648437 0 5.886719-4.765625 10.640625-10.644531 10.640625zm0 0" data-original="#000000" class="active-path" data-old_color="#000000" fill="#FFFFFF"/><path d="m366.359375 542.9375h-63.875c-5.875 0-10.640625-4.757812-10.640625-10.644531 0-5.890625 4.765625-10.644531 10.640625-10.644531h63.875c5.878906 0 10.644531 4.753906 10.644531 10.644531 0 5.886719-4.765625 10.644531-10.644531 10.644531zm0 0" data-original="#000000" class="active-path" data-old_color="#000000" fill="#FFFFFF"/><path d="m302.484375 596.164062c-5.875 0-10.640625-4.753906-10.640625-10.640624v-106.457032c0-5.886718 4.765625-10.648437 10.640625-10.648437 5.878906 0 10.648437 4.761719 10.648437 10.648437v106.457032c0 5.875-4.769531 10.640624-10.648437 10.640624zm0 0" data-original="#000000" class="active-path" data-old_color="#000000" fill="#FFFFFF"/><path d="m217.320312 596.164062c-5.878906 0-10.644531-4.753906-10.644531-10.640624v-106.457032c0-5.886718 4.765625-10.648437 10.644531-10.648437 5.875 0 10.648438 4.761719 10.648438 10.648437v106.457032c0 5.875-4.773438 10.640624-10.648438 10.640624zm0 0" data-original="#000000" class="active-path" data-old_color="#000000" fill="#FFFFFF"/><path d="m249.257812 596.164062h-63.871093c-5.878907 0-10.648438-4.753906-10.648438-10.640624 0-5.886719 4.769531-10.648438 10.648438-10.648438h63.871093c5.875 0 10.644532 4.761719 10.644532 10.648438 0 5.886718-4.769532 10.640624-10.644532 10.640624zm0 0" data-original="#000000" class="active-path" data-old_color="#000000" fill="#FFFFFF"/><path d="m249.257812 489.707031h-63.871093c-5.878907 0-10.648438-4.753906-10.648438-10.640625 0-5.886718 4.769531-10.648437 10.648438-10.648437h63.871093c5.875 0 10.644532 4.761719 10.644532 10.648437 0 5.886719-4.769532 10.640625-10.644532 10.640625zm0 0" data-original="#000000" class="active-path" data-old_color="#000000" fill="#FFFFFF"/><path d="m259.902344 255.503906c-2.722656 0-5.449219-1.042968-7.523438-3.121094-4.167968-4.160156-4.167968-10.886718 0-15.054687l31.933594-31.933594c4.152344-4.160156 10.902344-4.160156 15.054688 0 4.160156 4.160157 4.160156 10.890625 0 15.054688l-31.941407 31.933593c-2.074219 2.078126-4.796875 3.121094-7.523437 3.121094zm0 0" data-original="#000000" class="active-path" data-old_color="#000000" fill="#FFFFFF"/><path d="m291.84375 223.566406c-2.730469 0-5.453125-1.042968-7.53125-3.117187l-31.933594-31.941407c-4.167968-4.160156-4.167968-10.886718 0-15.054687 4.152344-4.160156 10.902344-4.160156 15.046875 0l31.941407 31.941406c4.160156 4.160157 4.160156 10.890625 0 15.054688-2.078126 2.074219-4.800782 3.117187-7.523438 3.117187zm0 0" data-original="#000000" class="active-path" data-old_color="#000000" fill="#FFFFFF"/><path d="m142.800781 266.148438c-5.875 0-10.648437-4.757813-10.648437-10.644532 0-29.347656 23.878906-53.226562 53.234375-53.226562h106.457031c5.871094 0 10.640625 4.753906 10.640625 10.640625s-4.769531 10.648437-10.640625 10.648437h-106.457031c-17.613281 0-31.941407 14.328125-31.941407 31.9375 0 5.875-4.769531 10.644532-10.644531 10.644532zm0 0" data-original="#000000" class="active-path" data-old_color="#000000" fill="#FFFFFF"/><path d="m142.800781 340.667969c-2.726562 0-5.453125-1.042969-7.527343-3.117188-4.164063-4.164062-4.164063-10.894531 0-15.054687l31.9375-31.933594c4.152343-4.164062 10.902343-4.164062 15.050781 0 4.167969 4.160156 4.167969 10.890625 0 15.050781l-31.933594 31.9375c-2.078125 2.074219-4.800781 3.117188-7.527344 3.117188zm0 0" data-original="#000000" class="active-path" data-old_color="#000000" fill="#FFFFFF"/><path d="m174.738281 372.609375c-2.726562 0-5.449219-1.042969-7.527343-3.121094l-31.9375-31.9375c-4.164063-4.164062-4.164063-10.894531 0-15.054687 4.152343-4.164063 10.902343-4.164063 15.054687 0l31.933594 31.9375c4.167969 4.164062 4.167969 10.894531 0 15.054687-2.070313 2.078125-4.800781 3.121094-7.523438 3.121094zm0 0" data-original="#000000" class="active-path" data-old_color="#000000" fill="#FFFFFF"/><path d="m249.257812 340.667969h-106.457031c-5.875 0-10.648437-4.757813-10.648437-10.644531 0-5.886719 4.773437-10.648438 10.648437-10.648438h106.457031c17.609376 0 31.9375-14.324219 31.9375-31.933594 0-5.886718 4.769532-10.648437 10.648438-10.648437 5.871094 0 10.640625 4.761719 10.640625 10.648437 0 29.335938-23.878906 53.226563-53.226563 53.226563zm0 0" data-original="#000000" class="active-path" data-old_color="#000000" fill="#FFFFFF"/></g> </svg>
