<?xml version="1.0"?>
<svg xmlns="http://www.w3.org/2000/svg" height="512px" viewBox="-117 -21 682 682.6646" width="512px"><g><path d="m431.25 639.996094h-426.664062c-5.890626 0-10.671876-4.773438-10.671876-10.660156v-618.667969c0-5.886719 4.78125-10.667969 10.671876-10.667969h330.660156c2.828125 0 5.546875 1.125 7.546875 3.125l96 96c2 2.007812 3.125 4.71875 3.125 7.542969v522.667969c0 5.886718-4.78125 10.660156-10.667969 10.660156zm-416-21.332032h405.335938v-507.582031l-89.753907-89.75h-315.582031zm0 0" data-original="#000000" class="active-path" data-old_color="#000000" fill="#FFFFFF"/><path d="m431.25 117.332031h-96.003906c-5.886719 0-10.664063-4.773437-10.664063-10.664062v-96c0-4.308594 2.605469-8.203125 6.582031-9.855469 3.976563-1.652344 8.574219-.734375 11.628907 2.3125l96 96c3.046875 3.050781 3.964843 7.636719 2.3125 11.625-1.652344 3.992188-5.535157 6.582031-9.855469 6.582031zm-85.332031-21.332031h59.582031l-59.582031-59.585938zm0 0" data-original="#000000" class="active-path" data-old_color="#000000" fill="#FFFFFF"/><path d="m431.25 639.996094h-426.664062c-5.890626 0-10.671876-4.773438-10.671876-10.660156v-192.003907c0-5.886719 4.78125-10.664062 10.671876-10.664062h426.664062c5.886719 0 10.667969 4.777343 10.667969 10.664062v192.003907c0 5.886718-4.78125 10.660156-10.667969 10.660156zm-416-21.332032h405.335938v-170.664062h-405.335938zm0 0" data-original="#000000" class="active-path" data-old_color="#000000" fill="#FFFFFF"/><path d="m79.246094 384.003906c-2.875 0-5.753906-1.167968-7.859375-3.457031-3.988281-4.34375-3.6875-11.09375.644531-15.074219l92.949219-85.332031c4.125-3.777344 10.472656-3.746094 14.542969.109375l56.386718 53.328125c4.277344 4.042969 4.46875 10.804687.417969 15.082031-4.042969 4.289063-10.796875 4.484375-15.085937.429688l-49.164063-46.507813-85.628906 78.613281c-2.035157 1.878907-4.617188 2.808594-7.203125 2.808594zm0 0" data-original="#000000" class="active-path" data-old_color="#000000" fill="#FFFFFF"/><path d="m148.582031 256c-20.585937 0-37.332031-16.746094-37.332031-37.332031 0-20.585938 16.746094-37.335938 37.332031-37.335938 20.585938 0 37.335938 16.75 37.335938 37.335938 0 20.585937-16.75 37.332031-37.335938 37.332031zm0-53.328125c-8.820312 0-16 7.175781-16 15.996094 0 8.820312 7.179688 16 16 16 8.824219 0 16.003907-7.179688 16.003907-16 0-8.820313-7.179688-15.996094-16.003907-15.996094zm0 0" data-original="#000000" class="active-path" data-old_color="#000000" fill="#FFFFFF"/><path d="m228.582031 352c-2.65625 0-5.3125-.980469-7.371093-2.964844l-29.492188-28.234375c-4.246094-4.0625-4.40625-10.804687-.34375-15.058593l64.546875-67.769532c2.015625-2.109375 4.871094-3.207031 7.722656-3.316406 2.890625 0 5.652344 1.171875 7.667969 3.242188l92.949219 96c4.097656 4.234374 3.988281 10.988281-.246094 15.085937-4.222656 4.105469-10.984375 3.996094-15.082031-.234375l-85.222656-88.023438-49.539063 52.011719 21.804687 20.882813c4.25 4.078125 4.402344 10.824218.332032 15.082031-2.117188 2.199219-4.921875 3.296875-7.726563 3.296875zm0 0" data-original="#000000" class="active-path" data-old_color="#000000" fill="#FFFFFF"/><path d="m356.582031 394.667969h-277.335937c-5.882813 0-10.664063-4.78125-10.664063-10.664063v-234.667968c0-5.890626 4.78125-10.667969 10.664063-10.667969h277.335937c5.886719 0 10.667969 4.777343 10.667969 10.667969v234.667968c0 5.882813-4.78125 10.664063-10.667969 10.664063zm-266.664062-21.335938h256v-213.332031h-256zm0 0" data-original="#000000" class="active-path" data-old_color="#000000" fill="#FFFFFF"/><path d="m345.871094 597.332031h-21.203125c-17.6875 0-32.085938-14.390625-32.085938-32.09375v-63.808593c0-17.695313 14.398438-32.09375 32.09375-32.09375h42.574219c5.886719 0 10.664062 4.777343 10.664062 10.664062s-4.777343 10.667969-10.664062 10.667969h-42.574219c-5.9375 0-10.761719 4.832031-10.761719 10.761719v63.808593c0 5.941407 4.824219 10.761719 10.761719 10.761719h21.207031c5.898438 0 10.699219-4.800781 10.699219-10.699219v-31.96875c0-5.886719 4.777344-10.664062 10.667969-10.664062 5.886719 0 10.664062 4.777343 10.664062 10.664062v31.96875c0 17.667969-14.367187 32.03125-32.042968 32.03125zm0 0" data-original="#000000" class="active-path" data-old_color="#000000" fill="#FFFFFF"/><path d="m367.25 544.003906h-21.332031c-5.890625 0-10.671875-4.78125-10.671875-10.671875 0-5.886719 4.78125-10.664062 10.671875-10.664062h21.332031c5.886719 0 10.664062 4.777343 10.664062 10.664062 0 5.890625-4.777343 10.671875-10.664062 10.671875zm0 0" data-original="#000000" class="active-path" data-old_color="#000000" fill="#FFFFFF"/><path d="m185.917969 597.332031c-5.890625 0-10.671875-4.773437-10.671875-10.664062v-106.667969c0-5.886719 4.78125-10.664062 10.671875-10.664062 5.886719 0 10.664062 4.777343 10.664062 10.664062v106.667969c0 5.890625-4.777343 10.664062-10.664062 10.664062zm0 0" data-original="#000000" class="active-path" data-old_color="#000000" fill="#FFFFFF"/><path d="m217.914062 554.667969h-31.996093c-5.890625 0-10.671875-4.78125-10.671875-10.664063v-64.003906c0-5.886719 4.78125-10.664062 10.671875-10.664062h31.996093c23.53125 0 42.671876 19.132812 42.671876 42.664062s-19.140626 42.667969-42.671876 42.667969zm-21.332031-21.335938h21.332031c11.765626 0 21.332032-9.5625 21.332032-21.332031 0-11.765625-9.566406-21.332031-21.332032-21.332031h-21.332031zm0 0" data-original="#000000" class="active-path" data-old_color="#000000" fill="#FFFFFF"/><path d="m100.585938 597.332031c-23.535157 0-42.671876-19.136719-42.671876-42.664062 0-5.890625 4.78125-10.664063 10.667969-10.664063 5.890625 0 10.664063 4.773438 10.664063 10.664063 0 11.765625 9.570312 21.332031 21.339844 21.332031 11.761718 0 21.332031-9.566406 21.332031-21.332031v-74.667969c0-5.886719 4.777343-10.664062 10.664062-10.664062 5.890625 0 10.667969 4.777343 10.667969 10.664062v74.667969c0 23.527343-19.132812 42.664062-42.664062 42.664062zm0 0" data-original="#000000" class="active-path" data-old_color="#000000" fill="#FFFFFF"/></g> </svg>
