<?xml version="1.0"?>
<svg xmlns="http://www.w3.org/2000/svg" height="512px" viewBox="-117 -21 682 682.66784" width="512px" class=""><g><path d="m431.25 640h-426.664062c-5.886719 0-10.667969-4.777344-10.667969-10.667969v-618.664062c0-5.882813 4.78125-10.66406275 10.667969-10.66406275h330.667968c2.820313 0 5.539063 1.12109375 7.539063 3.12499975l96 96c2 2.003906 3.125 4.714844 3.125 7.539063v522.664062c0 5.890625-4.78125 10.667969-10.667969 10.667969zm-415.996094-21.332031h405.332032v-507.578125l-89.753907-89.75h-315.578125zm0 0" data-original="#000000" class="active-path" data-old_color="#000000" fill="#FFFFFF"/><path d="m431.25 117.339844h-95.996094c-5.890625 0-10.671875-4.78125-10.671875-10.671875v-96c0-4.304688 2.605469-8.195313 6.582031-9.851563 3.980469-1.65625 8.574219-.7460935 11.628907 2.3125l96 96c3.050781 3.054688 3.964843 7.636719 2.3125 11.628906-1.652344 3.976563-5.546875 6.582032-9.855469 6.582032zm-85.332031-21.335938h59.582031l-59.582031-59.582031zm0 0" data-original="#000000" class="active-path" data-old_color="#000000" fill="#FFFFFF"/><path d="m431.25 640h-426.664062c-5.886719 0-10.667969-4.777344-10.667969-10.667969v-191.996093c0-5.886719 4.78125-10.667969 10.667969-10.667969h426.664062c5.886719 0 10.667969 4.78125 10.667969 10.667969v191.996093c0 5.890625-4.78125 10.667969-10.667969 10.667969zm-415.996094-21.332031h405.332032v-170.667969h-405.332032zm0 0" data-original="#000000" class="active-path" data-old_color="#000000" fill="#FFFFFF"/><path d="m196.585938 597.335938c-5.886719 0-10.667969-4.78125-10.667969-10.667969v-106.664063c0-5.890625 4.78125-10.671875 10.667969-10.671875 5.882812 0 10.664062 4.78125 10.664062 10.671875v106.664063c0 5.886719-4.78125 10.667969-10.664062 10.667969zm0 0" data-original="#000000" class="active-path" data-old_color="#000000" fill="#FFFFFF"/><path d="m228.582031 554.667969h-31.996093c-5.886719 0-10.667969-4.777344-10.667969-10.667969v-63.996094c0-5.890625 4.78125-10.671875 10.667969-10.671875h31.996093c23.53125 0 42.667969 19.136719 42.667969 42.667969 0 23.535156-19.136719 42.667969-42.667969 42.667969zm-21.332031-21.332031h21.332031c11.769531 0 21.335938-9.570313 21.335938-21.335938 0-11.761719-9.566407-21.332031-21.335938-21.332031h-21.332031zm0 0" data-original="#000000" class="active-path" data-old_color="#000000" fill="#FFFFFF"/><path d="m153.917969 394.671875c-23.53125 0-42.667969-19.136719-42.667969-42.671875 0-23.53125 19.136719-42.664062 42.667969-42.664062s42.667969 19.132812 42.667969 42.664062c0 23.535156-19.136719 42.671875-42.667969 42.671875zm0-64.003906c-11.765625 0-21.335938 9.570312-21.335938 21.332031 0 11.769531 9.570313 21.339844 21.335938 21.339844s21.335937-9.570313 21.335937-21.339844c0-11.761719-9.570312-21.332031-21.335937-21.332031zm0 0" data-original="#000000" class="active-path" data-old_color="#000000" fill="#FFFFFF"/><path d="m260.585938 352c-23.53125 0-42.667969-19.136719-42.667969-42.664062 0-23.53125 19.136719-42.667969 42.667969-42.667969s42.664062 19.136719 42.664062 42.667969c0 23.527343-19.132812 42.664062-42.664062 42.664062zm0-64c-11.769532 0-21.332032 9.570312-21.332032 21.335938 0 11.765624 9.5625 21.332031 21.332032 21.332031 11.761718 0 21.332031-9.566407 21.332031-21.332031 0-11.765626-9.570313-21.335938-21.332031-21.335938zm0 0" data-original="#000000" class="active-path" data-old_color="#000000" fill="#FFFFFF"/><path d="m185.917969 362.667969c-5.890625 0-10.664063-4.777344-10.664063-10.667969v-160c0-5.882812 4.773438-10.664062 10.664063-10.664062 5.886719 0 10.667969 4.78125 10.667969 10.664062v160c0 5.890625-4.78125 10.667969-10.667969 10.667969zm0 0" data-original="#000000" class="active-path" data-old_color="#000000" fill="#FFFFFF"/><path d="m292.582031 320.003906c-5.882812 0-10.664062-4.78125-10.664062-10.667968v-160c0-5.890626 4.78125-10.664063 10.664062-10.664063 5.890625 0 10.667969 4.773437 10.667969 10.664063v160c0 5.886718-4.777344 10.667968-10.667969 10.667968zm0 0" data-original="#000000" class="active-path" data-old_color="#000000" fill="#FFFFFF"/><path d="m185.917969 245.335938c-2.101563 0-4.191407-.621094-5.980469-1.835938-2.925781-1.984375-4.683594-5.289062-4.683594-8.828125v-42.671875c0-4.359375 2.652344-8.273438 6.695313-9.90625l106.667969-42.664062c3.296874-1.324219 7.007812-.917969 9.941406 1.078124 2.929687 1.980469 4.691406 5.289063 4.691406 8.828126v42.664062c0 4.367188-2.65625 8.28125-6.699219 9.914062l-106.664062 42.664063c-1.292969.511719-2.636719.757813-3.96875.757813zm10.667969-46.113282v19.691406l85.332031-34.128906v-19.691406zm0 0" data-original="#000000" class="active-path" data-old_color="#000000" fill="#FFFFFF"/><path d="m143.253906 597.335938c-5.890625 0-10.671875-4.78125-10.671875-10.667969v-66.496094l-22.738281 39.785156c-3.789062 6.644531-14.730469 6.644531-18.515625 0l-22.742187-39.785156v66.496094c0 5.886719-4.777344 10.667969-10.664063 10.667969-5.890625 0-10.671875-4.78125-10.671875-10.667969v-106.664063c0-4.84375 3.253906-9.070312 7.925781-10.304687 4.683594-1.285157 9.601563.820312 12.003907 5.011719l33.40625 58.453124 33.410156-58.453124c2.394531-4.199219 7.292968-6.296876 11.996094-5.011719 4.671874 1.234375 7.925781 5.460937 7.925781 10.304687v106.664063c0 5.886719-4.777344 10.667969-10.664063 10.667969zm0 0" data-original="#000000" class="active-path" data-old_color="#000000" fill="#FFFFFF"/><path d="m351.25 544h-37.335938c-5.882812 0-10.664062-4.78125-10.664062-10.664062 0-5.886719 4.78125-10.667969 10.664062-10.667969h37.335938c8.820312 0 16-7.175781 16-16 0-8.820313-7.179688-16-16-16h-37.335938c-5.882812 0-10.664062-4.777344-10.664062-10.664063 0-5.890625 4.78125-10.671875 10.664062-10.671875h37.335938c20.585938 0 37.332031 16.75 37.332031 37.335938 0 20.585937-16.746093 37.332031-37.332031 37.332031zm0 0" data-original="#000000" class="active-path" data-old_color="#000000" fill="#FFFFFF"/><path d="m351.25 597.335938h-37.335938c-5.882812 0-10.664062-4.78125-10.664062-10.667969 0-5.890625 4.78125-10.664063 10.664062-10.664063h37.335938c8.820312 0 16-7.179687 16-16.003906 0-8.820312-7.179688-16-16-16h-37.335938c-5.882812 0-10.664062-4.78125-10.664062-10.664062 0-5.886719 4.78125-10.667969 10.664062-10.667969h37.335938c20.585938 0 37.332031 16.746093 37.332031 37.332031s-16.746093 37.335938-37.332031 37.335938zm0 0" data-original="#000000" class="active-path" data-old_color="#000000" fill="#FFFFFF"/></g> </svg>
