<?xml version="1.0"?>
<svg xmlns="http://www.w3.org/2000/svg" height="512px" viewBox="-117 -21 682 682.66784" width="512px"><g><path d="m431.25 640h-426.664062c-5.886719 0-10.667969-4.777344-10.667969-10.667969v-618.664062c0-5.882813 4.78125-10.66406275 10.667969-10.66406275h330.667968c2.820313 0 5.539063 1.12109375 7.539063 3.12499975l96 96c2 2.003906 3.125 4.714844 3.125 7.539063v522.664062c0 5.890625-4.78125 10.667969-10.667969 10.667969zm-415.996094-21.332031h405.332032v-507.578125l-89.753907-89.75h-315.578125zm0 0" data-original="#000000" class="active-path" data-old_color="#000000" fill="#FFFFFF"/><path d="m431.25 117.339844h-95.996094c-5.890625 0-10.671875-4.78125-10.671875-10.671875v-96c0-4.304688 2.605469-8.195313 6.582031-9.851563 3.992188-1.65625 8.566407-.7460935 11.628907 2.3125l96 96c3.050781 3.054688 3.964843 7.636719 2.3125 11.628906-1.652344 3.976563-5.546875 6.582032-9.855469 6.582032zm-85.332031-21.335938h59.582031l-59.582031-59.582031zm0 0" data-original="#000000" class="active-path" data-old_color="#000000" fill="#FFFFFF"/><path d="m431.25 640h-426.664062c-5.886719 0-10.667969-4.777344-10.667969-10.667969v-191.996093c0-5.886719 4.78125-10.667969 10.667969-10.667969h426.664062c5.886719 0 10.667969 4.78125 10.667969 10.667969v191.996093c0 5.890625-4.78125 10.667969-10.667969 10.667969zm-415.996094-21.332031h405.332032v-170.667969h-405.332032zm0 0" data-original="#000000" class="active-path" data-old_color="#000000" fill="#FFFFFF"/><path d="m196.585938 597.335938c-5.886719 0-10.667969-4.78125-10.667969-10.667969v-106.664063c0-5.890625 4.78125-10.671875 10.667969-10.671875 5.882812 0 10.664062 4.78125 10.664062 10.671875v106.664063c0 5.886719-4.78125 10.667969-10.664062 10.667969zm0 0" data-original="#000000" class="active-path" data-old_color="#000000" fill="#FFFFFF"/><path d="m228.582031 554.667969h-31.996093c-5.886719 0-10.667969-4.777344-10.667969-10.667969v-63.996094c0-5.890625 4.78125-10.671875 10.667969-10.671875h31.996093c23.53125 0 42.667969 19.136719 42.667969 42.667969 0 23.535156-19.136719 42.667969-42.667969 42.667969zm-21.332031-21.332031h21.332031c11.769531 0 21.335938-9.570313 21.335938-21.335938 0-11.761719-9.566407-21.332031-21.335938-21.332031h-21.332031zm0 0" data-original="#000000" class="active-path" data-old_color="#000000" fill="#FFFFFF"/><path d="m143.253906 597.335938c-5.890625 0-10.671875-4.78125-10.671875-10.667969v-66.496094l-22.738281 39.785156c-3.789062 6.644531-14.730469 6.644531-18.515625 0l-22.742187-39.785156v66.496094c0 5.886719-4.777344 10.667969-10.664063 10.667969-5.890625 0-10.671875-4.78125-10.671875-10.667969v-106.664063c0-4.84375 3.253906-9.070312 7.925781-10.304687 4.683594-1.285157 9.601563.820312 12.003907 5.011719l33.40625 58.453124 33.410156-58.453124c2.394531-4.199219 7.304687-6.296876 11.996094-5.011719 4.671874 1.234375 7.925781 5.460937 7.925781 10.304687v106.664063c0 5.886719-4.777344 10.667969-10.664063 10.667969zm0 0" data-original="#000000" class="active-path" data-old_color="#000000" fill="#FFFFFF"/><path d="m313.914062 544.011719c-1.316406 0-2.65625-.246094-3.953124-.769531-5.476563-2.195313-8.128907-8.390626-5.945313-13.867188l21.335937-53.332031c2.1875-5.460938 8.371094-8.125 13.867188-5.9375 5.472656 2.195312 8.128906 8.394531 5.941406 13.867187l-21.332031 53.328125c-1.675781 4.160157-5.683594 6.710938-9.914063 6.710938zm0 0" data-original="#000000" class="active-path" data-old_color="#000000" fill="#FFFFFF"/><path d="m377.917969 544h-64.003907c-5.882812 0-10.664062-4.78125-10.664062-10.664062 0-5.886719 4.78125-10.667969 10.664062-10.667969h64.003907c5.890625 0 10.664062 4.78125 10.664062 10.667969 0 5.882812-4.773437 10.664062-10.664062 10.664062zm0 0" data-original="#000000" class="active-path" data-old_color="#000000" fill="#FFFFFF"/><path d="m356.585938 597.335938c-5.890626 0-10.667969-4.78125-10.667969-10.667969v-74.667969c0-5.882812 4.777343-10.664062 10.667969-10.664062 5.882812 0 10.664062 4.78125 10.664062 10.664062v74.667969c0 5.886719-4.78125 10.667969-10.664062 10.667969zm0 0" data-original="#000000" class="active-path" data-old_color="#000000" fill="#FFFFFF"/><path d="m367.25 384h-298.664062c-5.890626 0-10.664063-4.777344-10.664063-10.660156v-192.003906c0-5.886719 4.773437-10.667969 10.664063-10.667969h298.664062c5.886719 0 10.667969 4.78125 10.667969 10.667969v192.003906c0 5.882812-4.78125 10.660156-10.667969 10.660156zm-287.996094-21.332031h277.332032v-170.667969h-277.332032zm0 0" data-original="#000000" class="active-path" data-old_color="#000000" fill="#FFFFFF"/><path d="m196.585938 330.667969c-1.726563 0-3.457032-.414063-5.039063-1.253907-3.460937-1.855468-5.628906-5.476562-5.628906-9.410156v-85.332031c0-3.933594 2.167969-7.554687 5.628906-9.410156 3.457031-1.855469 7.671875-1.652344 10.949219.535156l63.996094 42.664063c2.976562 1.988281 4.757812 5.3125 4.757812 8.875s-1.78125 6.890624-4.746094 8.875l-64 42.664062c-1.792968 1.1875-3.851562 1.792969-5.917968 1.792969zm10.664062-76.058594v45.46875l34.101562-22.742187zm0 0" data-original="#000000" class="active-path" data-old_color="#000000" fill="#FFFFFF"/></g> </svg>
