<?xml version="1.0"?>
<svg xmlns="http://www.w3.org/2000/svg" height="512px" viewBox="-117 -21 682 682.6646" width="512px"><g><path d="m431.25 639.996094h-426.664062c-5.890626 0-10.671876-4.773438-10.671876-10.660156v-618.667969c0-5.886719 4.78125-10.667969 10.671876-10.667969h330.660156c2.828125 0 5.546875 1.125 7.546875 3.125l96 96c2 2.007812 3.125 4.71875 3.125 7.542969v522.667969c0 5.886718-4.78125 10.660156-10.667969 10.660156zm-416-21.332032h405.335938v-507.582031l-89.753907-89.75h-315.582031zm0 0" data-original="#000000" class="active-path" data-old_color="#000000" fill="#FFFFFF"/><path d="m431.25 117.332031h-96.003906c-5.886719 0-10.664063-4.773437-10.664063-10.664062v-96c0-4.308594 2.605469-8.203125 6.582031-9.855469 3.992188-1.652344 8.574219-.734375 11.628907 2.3125l96 96c3.046875 3.050781 3.964843 7.636719 2.3125 11.625-1.652344 3.980469-5.535157 6.582031-9.855469 6.582031zm-85.332031-21.332031h59.582031l-59.582031-59.585938zm0 0" data-original="#000000" class="active-path" data-old_color="#000000" fill="#FFFFFF"/><path d="m431.25 639.996094h-426.664062c-5.890626 0-10.671876-4.773438-10.671876-10.660156v-192.003907c0-5.886719 4.78125-10.664062 10.671876-10.664062h426.664062c5.886719 0 10.667969 4.777343 10.667969 10.664062v192.003907c0 5.886718-4.78125 10.660156-10.667969 10.660156zm-416-21.332032h405.335938v-170.664062h-405.335938zm0 0" data-original="#000000" class="active-path" data-old_color="#000000" fill="#FFFFFF"/><path d="m68.582031 597.332031c-5.886719 0-10.667969-4.773437-10.667969-10.664062v-106.667969c0-5.886719 4.78125-10.664062 10.667969-10.664062 5.890625 0 10.664063 4.777343 10.664063 10.664062v106.667969c0 5.890625-4.773438 10.664062-10.664063 10.664062zm0 0" data-original="#000000" class="active-path" data-old_color="#000000" fill="#FFFFFF"/><path d="m100.585938 554.667969h-32.003907c-5.886719 0-10.667969-4.78125-10.667969-10.664063v-64.003906c0-5.886719 4.78125-10.664062 10.667969-10.664062h32.003907c23.53125 0 42.664062 19.132812 42.664062 42.664062s-19.132812 42.667969-42.664062 42.667969zm-21.339844-21.335938h21.339844c11.761718 0 21.332031-9.5625 21.332031-21.332031 0-11.765625-9.570313-21.332031-21.332031-21.332031h-21.339844zm0 0" data-original="#000000" class="active-path" data-old_color="#000000" fill="#FFFFFF"/><path d="m185.917969 597.332031c-5.890625 0-10.671875-4.773437-10.671875-10.664062v-106.667969c0-5.886719 4.78125-10.664062 10.671875-10.664062 5.886719 0 10.664062 4.777343 10.664062 10.664062v106.667969c0 5.890625-4.777343 10.664062-10.664062 10.664062zm0 0" data-original="#000000" class="active-path" data-old_color="#000000" fill="#FFFFFF"/><path d="m217.914062 554.667969h-31.996093c-5.890625 0-10.671875-4.78125-10.671875-10.664063v-64.003906c0-5.886719 4.78125-10.664062 10.671875-10.664062h31.996093c23.53125 0 42.671876 19.132812 42.671876 42.664062s-19.140626 42.667969-42.671876 42.667969zm-21.332031-21.335938h21.332031c11.765626 0 21.332032-9.5625 21.332032-21.332031 0-11.765625-9.566406-21.332031-21.332032-21.332031h-21.332031zm0 0" data-original="#000000" class="active-path" data-old_color="#000000" fill="#FFFFFF"/><path d="m367.25 490.667969h-64c-5.886719 0-10.667969-4.78125-10.667969-10.667969s4.78125-10.664062 10.667969-10.664062h64c5.886719 0 10.664062 4.777343 10.664062 10.664062s-4.777343 10.667969-10.664062 10.667969zm0 0" data-original="#000000" class="active-path" data-old_color="#000000" fill="#FFFFFF"/><path d="m335.246094 597.332031c-5.886719 0-10.664063-4.773437-10.664063-10.664062v-106.667969c0-5.886719 4.777344-10.664062 10.664063-10.664062 5.890625 0 10.671875 4.777343 10.671875 10.664062v106.667969c0 5.890625-4.78125 10.664062-10.671875 10.664062zm0 0" data-original="#000000" class="active-path" data-old_color="#000000" fill="#FFFFFF"/><path d="m356.582031 341.332031h-277.335937c-5.882813 0-10.664063-4.777343-10.664063-10.664062v-170.667969c0-5.882812 4.78125-10.664062 10.664063-10.664062h277.335937c5.886719 0 10.667969 4.78125 10.667969 10.664062v170.667969c0 5.886719-4.78125 10.664062-10.667969 10.664062zm-266.664062-21.332031h256v-149.332031h-256zm0 0" data-original="#000000" class="active-path" data-old_color="#000000" fill="#FFFFFF"/><path d="m217.914062 170.667969c-2.730468 0-5.460937-1.042969-7.539062-3.125l-32.003906-32c-4.167969-4.171875-4.167969-10.910157 0-15.085938 4.160156-4.167969 10.925781-4.167969 15.085937 0l32 32.003907c4.171875 4.167968 4.171875 10.914062 0 15.082031-2.078125 2.082031-4.808593 3.125-7.542969 3.125zm0 0" data-original="#000000" class="active-path" data-old_color="#000000" fill="#FFFFFF"/><path d="m217.914062 170.667969c-2.730468 0-5.460937-1.042969-7.539062-3.125-4.171875-4.167969-4.171875-10.914063 0-15.082031l32-32.003907c4.160156-4.167969 10.925781-4.167969 15.078125 0 4.175781 4.175781 4.175781 10.914063 0 15.085938l-31.996094 32c-2.078125 2.082031-4.808593 3.125-7.542969 3.125zm0 0" data-original="#000000" class="active-path" data-old_color="#000000" fill="#FFFFFF"/><path d="m153.90625 394.667969c-1.867188 0-3.765625-.488281-5.472656-1.523438-5.054688-3.035156-6.6875-9.582031-3.660156-14.636719l32.003906-53.332031c3.027344-5.058593 9.574218-6.679687 14.632812-3.65625 5.054688 3.027344 6.6875 9.574219 3.65625 14.632813l-31.996094 53.328125c-2.007812 3.339843-5.535156 5.1875-9.164062 5.1875zm0 0" data-original="#000000" class="active-path" data-old_color="#000000" fill="#FFFFFF"/><path d="m281.925781 394.667969c-3.625 0-7.15625-1.847657-9.152343-5.171875l-32-53.335938c-3.03125-5.054687-1.394532-11.605468 3.660156-14.632812 5.042968-3.03125 11.605468-1.394532 14.632812 3.65625l32 53.335937c3.027344 5.054688 1.398438 11.605469-3.65625 14.632813-1.71875 1.027344-3.617187 1.515625-5.484375 1.515625zm0 0" data-original="#000000" class="active-path" data-old_color="#000000" fill="#FFFFFF"/><path d="m207.25 213.335938h-85.332031c-5.886719 0-10.667969-4.78125-10.667969-10.664063 0-5.890625 4.78125-10.671875 10.667969-10.671875h85.332031c5.886719 0 10.664062 4.78125 10.664062 10.671875 0 5.882813-4.777343 10.664063-10.664062 10.664063zm0 0" data-original="#000000" class="active-path" data-old_color="#000000" fill="#FFFFFF"/><path d="m313.914062 298.667969h-85.332031c-5.886719 0-10.667969-4.777344-10.667969-10.664063 0-5.890625 4.78125-10.671875 10.667969-10.671875h85.332031c5.890626 0 10.667969 4.78125 10.667969 10.671875 0 5.886719-4.777343 10.664063-10.667969 10.664063zm0 0" data-original="#000000" class="active-path" data-old_color="#000000" fill="#FFFFFF"/><path d="m260.585938 256h-85.339844c-5.886719 0-10.660156-4.773438-10.660156-10.664062 0-5.886719 4.773437-10.667969 10.660156-10.667969h85.339844c5.882812 0 10.664062 4.78125 10.664062 10.667969 0 5.890624-4.78125 10.664062-10.664062 10.664062zm0 0" data-original="#000000" class="active-path" data-old_color="#000000" fill="#FFFFFF"/></g> </svg>
