<?xml version="1.0"?>
<svg xmlns="http://www.w3.org/2000/svg" height="512px" viewBox="-117 -21 682 682.6646" width="512px"><g><path d="m431.25 639.996094h-426.664062c-5.890626 0-10.671876-4.773438-10.671876-10.660156v-618.667969c0-5.886719 4.78125-10.667969 10.671876-10.667969h330.660156c2.828125 0 5.546875 1.125 7.546875 3.125l96 96c2 2.007812 3.125 4.71875 3.125 7.542969v522.667969c0 5.886718-4.78125 10.660156-10.667969 10.660156zm-416-21.332032h405.335938v-507.582031l-89.753907-89.75h-315.582031zm0 0" data-original="#000000" class="active-path" data-old_color="#000000" fill="#FFFFFF"/><path d="m431.25 117.332031h-96.003906c-5.886719 0-10.664063-4.773437-10.664063-10.664062v-96c0-4.308594 2.605469-8.203125 6.582031-9.855469 3.992188-1.652344 8.574219-.734375 11.628907 2.3125l96 96c3.046875 3.050781 3.964843 7.636719 2.3125 11.625-1.652344 3.980469-5.535157 6.582031-9.855469 6.582031zm-85.332031-21.332031h59.582031l-59.582031-59.585938zm0 0" data-original="#000000" class="active-path" data-old_color="#000000" fill="#FFFFFF"/><path d="m431.25 639.996094h-426.664062c-5.890626 0-10.671876-4.773438-10.671876-10.660156v-192.003907c0-5.886719 4.78125-10.664062 10.671876-10.664062h426.664062c5.886719 0 10.667969 4.777343 10.667969 10.664062v192.003907c0 5.886718-4.78125 10.660156-10.667969 10.660156zm-416-21.332032h405.335938v-170.664062h-405.335938zm0 0" data-original="#000000" class="active-path" data-old_color="#000000" fill="#FFFFFF"/><path d="m153.914062 288.003906h-85.332031c-5.886719 0-10.667969-4.78125-10.667969-10.671875 0-5.886719 4.78125-10.664062 10.667969-10.664062h85.332031c5.890626 0 10.671876 4.777343 10.671876 10.664062 0 5.890625-4.78125 10.671875-10.671876 10.671875zm0 0" data-original="#000000" class="active-path" data-old_color="#000000" fill="#FFFFFF"/><path d="m303.25 288.003906h-106.667969c-5.890625 0-10.664062-4.78125-10.664062-10.671875 0-5.886719 4.773437-10.664062 10.664062-10.664062h106.667969c5.890625 0 10.664062 4.777343 10.664062 10.664062 0 5.890625-4.773437 10.671875-10.664062 10.671875zm0 0" data-original="#000000" class="active-path" data-old_color="#000000" fill="#FFFFFF"/><path d="m271.25 330.667969h-117.335938c-5.886718 0-10.664062-4.78125-10.664062-10.667969 0-5.882812 4.777344-10.664062 10.664062-10.664062h117.335938c5.886719 0 10.667969 4.78125 10.667969 10.664062 0 5.886719-4.78125 10.667969-10.667969 10.667969zm0 0" data-original="#000000" class="active-path" data-old_color="#000000" fill="#FFFFFF"/><path d="m367.25 288.003906h-21.332031c-5.890625 0-10.671875-4.78125-10.671875-10.671875 0-5.886719 4.78125-10.664062 10.671875-10.664062h21.332031c5.886719 0 10.664062 4.777343 10.664062 10.664062 0 5.890625-4.777343 10.671875-10.664062 10.671875zm0 0" data-original="#000000" class="active-path" data-old_color="#000000" fill="#FFFFFF"/><path d="m367.25 330.667969h-53.335938c-5.886718 0-10.664062-4.78125-10.664062-10.667969 0-5.882812 4.777344-10.664062 10.664062-10.664062h53.335938c5.886719 0 10.664062 4.78125 10.664062 10.664062 0 5.886719-4.777343 10.667969-10.664062 10.667969zm0 0" data-original="#000000" class="active-path" data-old_color="#000000" fill="#FFFFFF"/><path d="m111.25 330.667969h-42.667969c-5.886719 0-10.667969-4.78125-10.667969-10.667969 0-5.882812 4.78125-10.664062 10.667969-10.664062h42.667969c5.886719 0 10.667969 4.78125 10.667969 10.664062 0 5.886719-4.78125 10.667969-10.667969 10.667969zm0 0" data-original="#000000" class="active-path" data-old_color="#000000" fill="#FFFFFF"/><path d="m153.914062 373.332031h-85.332031c-5.886719 0-10.667969-4.777343-10.667969-10.664062s4.78125-10.667969 10.667969-10.667969h85.332031c5.890626 0 10.671876 4.78125 10.671876 10.667969s-4.78125 10.664062-10.671876 10.664062zm0 0" data-original="#000000" class="active-path" data-old_color="#000000" fill="#FFFFFF"/><path d="m303.25 373.332031h-106.667969c-5.890625 0-10.664062-4.777343-10.664062-10.664062s4.773437-10.667969 10.664062-10.667969h106.667969c5.890625 0 10.664062 4.78125 10.664062 10.667969s-4.773437 10.664062-10.664062 10.664062zm0 0" data-original="#000000" class="active-path" data-old_color="#000000" fill="#FFFFFF"/><path d="m367.25 373.332031h-21.332031c-5.890625 0-10.671875-4.777343-10.671875-10.664062s4.78125-10.667969 10.671875-10.667969h21.332031c5.886719 0 10.664062 4.78125 10.664062 10.667969s-4.777343 10.664062-10.664062 10.664062zm0 0" data-original="#000000" class="active-path" data-old_color="#000000" fill="#FFFFFF"/><path d="m367.25 245.335938h-85.332031c-5.890625 0-10.667969-4.78125-10.667969-10.667969 0-5.890625 4.777344-10.664063 10.667969-10.664063h85.332031c5.886719 0 10.664062 4.773438 10.664062 10.664063 0 5.886719-4.777343 10.667969-10.664062 10.667969zm0 0" data-original="#000000" class="active-path" data-old_color="#000000" fill="#FFFFFF"/><path d="m239.246094 245.335938h-106.664063c-5.886719 0-10.664062-4.78125-10.664062-10.667969 0-5.890625 4.777343-10.664063 10.664062-10.664063h106.664063c5.890625 0 10.667968 4.773438 10.667968 10.664063 0 5.886719-4.777343 10.667969-10.667968 10.667969zm0 0" data-original="#000000" class="active-path" data-old_color="#000000" fill="#FFFFFF"/><path d="m281.917969 202.671875h-117.332031c-5.890626 0-10.671876-4.78125-10.671876-10.671875 0-5.886719 4.78125-10.667969 10.671876-10.667969h117.332031c5.882812 0 10.664062 4.78125 10.664062 10.667969 0 5.890625-4.78125 10.671875-10.664062 10.671875zm0 0" data-original="#000000" class="active-path" data-old_color="#000000" fill="#FFFFFF"/><path d="m89.917969 245.335938h-21.335938c-5.886719 0-10.667969-4.78125-10.667969-10.667969 0-5.890625 4.78125-10.664063 10.667969-10.664063h21.335938c5.886719 0 10.667969 4.773438 10.667969 10.664063 0 5.886719-4.78125 10.667969-10.667969 10.667969zm0 0" data-original="#000000" class="active-path" data-old_color="#000000" fill="#FFFFFF"/><path d="m121.917969 202.671875h-53.335938c-5.886719 0-10.667969-4.78125-10.667969-10.671875 0-5.886719 4.78125-10.667969 10.667969-10.667969h53.335938c5.882812 0 10.664062 4.78125 10.664062 10.667969 0 5.890625-4.78125 10.671875-10.664062 10.671875zm0 0" data-original="#000000" class="active-path" data-old_color="#000000" fill="#FFFFFF"/><path d="m367.25 202.671875h-42.667969c-5.886719 0-10.667969-4.78125-10.667969-10.671875 0-5.886719 4.78125-10.667969 10.667969-10.667969h42.667969c5.886719 0 10.664062 4.78125 10.664062 10.667969 0 5.890625-4.777343 10.671875-10.664062 10.671875zm0 0" data-original="#000000" class="active-path" data-old_color="#000000" fill="#FFFFFF"/><path d="m68.582031 597.332031c-5.886719 0-10.667969-4.773437-10.667969-10.664062v-106.667969c0-5.886719 4.78125-10.664062 10.667969-10.664062 5.890625 0 10.664063 4.777343 10.664063 10.664062v106.667969c0 5.890625-4.773438 10.664062-10.664063 10.664062zm0 0" data-original="#000000" class="active-path" data-old_color="#000000" fill="#FFFFFF"/><path d="m100.585938 554.667969h-32.003907c-5.886719 0-10.667969-4.78125-10.667969-10.664063v-64.003906c0-5.886719 4.78125-10.664062 10.667969-10.664062h32.003907c23.53125 0 42.664062 19.132812 42.664062 42.664062s-19.132812 42.667969-42.664062 42.667969zm-21.339844-21.335938h21.339844c11.761718 0 21.332031-9.5625 21.332031-21.332031 0-11.765625-9.570313-21.332031-21.332031-21.332031h-21.339844zm0 0" data-original="#000000" class="active-path" data-old_color="#000000" fill="#FFFFFF"/><path d="m249.914062 490.667969h-63.996093c-5.890625 0-10.671875-4.78125-10.671875-10.667969s4.78125-10.664062 10.671875-10.664062h63.996093c5.890626 0 10.671876 4.777343 10.671876 10.664062s-4.78125 10.667969-10.671876 10.667969zm0 0" data-original="#000000" class="active-path" data-old_color="#000000" fill="#FFFFFF"/><path d="m217.914062 597.332031c-5.882812 0-10.664062-4.773437-10.664062-10.664062v-106.667969c0-5.886719 4.78125-10.664062 10.664062-10.664062 5.886719 0 10.667969 4.777343 10.667969 10.664062v106.667969c0 5.890625-4.78125 10.664062-10.667969 10.664062zm0 0" data-original="#000000" class="active-path" data-old_color="#000000" fill="#FFFFFF"/><path d="m367.25 490.667969h-64c-5.886719 0-10.667969-4.78125-10.667969-10.667969s4.78125-10.664062 10.667969-10.664062h64c5.886719 0 10.664062 4.777343 10.664062 10.664062s-4.777343 10.667969-10.664062 10.667969zm0 0" data-original="#000000" class="active-path" data-old_color="#000000" fill="#FFFFFF"/><path d="m367.25 544.003906h-64c-5.886719 0-10.667969-4.78125-10.667969-10.671875 0-5.886719 4.78125-10.664062 10.667969-10.664062h64c5.886719 0 10.664062 4.777343 10.664062 10.664062 0 5.890625-4.777343 10.671875-10.664062 10.671875zm0 0" data-original="#000000" class="active-path" data-old_color="#000000" fill="#FFFFFF"/><path d="m303.25 597.332031c-5.886719 0-10.667969-4.773437-10.667969-10.664062v-106.667969c0-5.886719 4.78125-10.664062 10.667969-10.664062 5.890625 0 10.664062 4.777343 10.664062 10.664062v106.667969c0 5.890625-4.773437 10.664062-10.664062 10.664062zm0 0" data-original="#000000" class="active-path" data-old_color="#000000" fill="#FFFFFF"/><path d="m132.59375 597.332031c-3.242188 0-6.441406-1.46875-8.542969-4.265625l-32-42.667968c-3.53125-4.710938-2.582031-11.402344 2.132813-14.929688 4.710937-3.542969 11.402344-2.585938 14.933594 2.132812l32 42.664063c3.53125 4.71875 2.578124 11.402344-2.132813 14.933594-1.917969 1.441406-4.171875 2.132812-6.390625 2.132812zm0 0" data-original="#000000" class="active-path" data-old_color="#000000" fill="#FFFFFF"/></g> </svg>
