<?xml version="1.0"?>
<svg xmlns="http://www.w3.org/2000/svg" height="512px" viewBox="-117 -21 682 682.6646" width="512px"><g><path d="m431.25 639.996094h-426.664062c-5.890626 0-10.671876-4.773438-10.671876-10.660156v-618.667969c0-5.886719 4.78125-10.667969 10.671876-10.667969h330.660156c2.828125 0 5.546875 1.125 7.546875 3.125l96 96c2 2.007812 3.125 4.71875 3.125 7.542969v522.667969c0 5.886718-4.78125 10.660156-10.667969 10.660156zm-416-21.332032h405.335938v-507.582031l-89.753907-89.75h-315.582031zm0 0" data-original="#000000" class="active-path" data-old_color="#000000" fill="#FFFFFF"/><path d="m431.25 117.332031h-96.003906c-5.886719 0-10.664063-4.773437-10.664063-10.664062v-96c0-4.308594 2.605469-8.203125 6.582031-9.855469 3.976563-1.652344 8.574219-.734375 11.628907 2.3125l96 96c3.046875 3.050781 3.964843 7.636719 2.3125 11.625-1.652344 3.980469-5.535157 6.582031-9.855469 6.582031zm-85.332031-21.332031h59.582031l-59.582031-59.585938zm0 0" data-original="#000000" class="active-path" data-old_color="#000000" fill="#FFFFFF"/><path d="m431.25 639.996094h-426.664062c-5.890626 0-10.671876-4.773438-10.671876-10.660156v-192.003907c0-5.886719 4.78125-10.664062 10.671876-10.664062h426.664062c5.886719 0 10.667969 4.777343 10.667969 10.664062v192.003907c0 5.886718-4.78125 10.660156-10.667969 10.660156zm-416-21.332032h405.335938v-170.664062h-405.335938zm0 0" data-original="#000000" class="active-path" data-old_color="#000000" fill="#FFFFFF"/><path d="m105.917969 597.332031h-37.335938c-5.886719 0-10.667969-4.773437-10.667969-10.664062 0-5.886719 4.78125-10.667969 10.667969-10.667969h37.335938c8.816406 0 16-7.179688 16-16s-7.183594-15.996094-16-15.996094h-10.667969c-20.585938 0-37.335938-16.75-37.335938-37.335937 0-20.585938 16.75-37.332031 37.335938-37.332031h37.332031c5.890625 0 10.667969 4.777343 10.667969 10.664062s-4.777344 10.667969-10.667969 10.667969h-37.332031c-8.820312 0-16.003906 7.175781-16.003906 16 0 8.820312 7.183594 16 16.003906 16h10.667969c20.585937 0 37.332031 16.746093 37.332031 37.332031 0 20.589844-16.746094 37.332031-37.332031 37.332031zm0 0" data-original="#000000" class="active-path" data-old_color="#000000" fill="#FFFFFF"/><path d="m239.246094 234.667969h-42.664063c-5.890625 0-10.664062-4.78125-10.664062-10.664063v-42.671875c0-5.882812 4.773437-10.664062 10.664062-10.664062h42.664063c5.890625 0 10.667968 4.78125 10.667968 10.664062v42.671875c0 5.882813-4.777343 10.664063-10.667968 10.664063zm-31.996094-21.332031h21.332031v-21.335938h-21.332031zm0 0" data-original="#000000" class="active-path" data-old_color="#000000" fill="#FFFFFF"/><path d="m356.582031 352h-42.667969c-5.886718 0-10.664062-4.78125-10.664062-10.667969v-42.664062c0-5.890625 4.777344-10.664063 10.664062-10.664063h42.667969c5.886719 0 10.667969 4.773438 10.667969 10.664063v42.664062c0 5.886719-4.78125 10.667969-10.667969 10.667969zm-32-21.332031h21.335938v-21.332031h-21.335938zm0 0" data-original="#000000" class="active-path" data-old_color="#000000" fill="#FFFFFF"/><path d="m356.914062 213.335938h-113.664062c-5.707031 0-10.335938-4.78125-10.335938-10.664063 0-5.890625 4.628907-10.671875 10.335938-10.671875h113.664062c5.707032 0 10.335938 4.78125 10.335938 10.671875 0 5.882813-4.628906 10.664063-10.335938 10.664063zm0 0" data-original="#000000" class="active-path" data-old_color="#000000" fill="#FFFFFF"/><path d="m191.835938 213.335938h-112.980469c-5.675781 0-10.273438-4.78125-10.273438-10.664063 0-5.890625 4.597657-10.671875 10.273438-10.671875h112.980469c5.671874 0 10.273437 4.78125 10.273437 10.671875 0 5.882813-4.601563 10.664063-10.273437 10.664063zm0 0" data-original="#000000" class="active-path" data-old_color="#000000" fill="#FFFFFF"/><path d="m335.246094 309.335938c-5.886719 0-10.664063-4.78125-10.664063-10.667969 0-47.050781-38.285156-85.332031-85.335937-85.332031-5.882813 0-10.664063-4.78125-10.664063-10.664063 0-5.890625 4.78125-10.671875 10.664063-10.671875 58.820312 0 106.671875 47.851562 106.671875 106.667969 0 5.886719-4.78125 10.667969-10.671875 10.667969zm0 0" data-original="#000000" class="active-path" data-old_color="#000000" fill="#FFFFFF"/><path d="m121.917969 352h-42.671875c-5.882813 0-10.664063-4.78125-10.664063-10.667969v-42.664062c0-5.890625 4.78125-10.664063 10.664063-10.664063h42.671875c5.882812 0 10.664062 4.773438 10.664062 10.664063v42.664062c0 5.886719-4.78125 10.667969-10.664062 10.667969zm-32-21.332031h21.332031v-21.332031h-21.332031zm0 0" data-original="#000000" class="active-path" data-old_color="#000000" fill="#FFFFFF"/><path d="m100.585938 309.335938c-5.890626 0-10.667969-4.78125-10.667969-10.667969 0-58.816407 47.851562-106.667969 106.664062-106.667969 5.886719 0 10.667969 4.78125 10.667969 10.671875 0 5.882813-4.78125 10.664063-10.667969 10.664063-47.050781 0-85.332031 38.28125-85.332031 85.332031 0 5.886719-4.78125 10.667969-10.664062 10.667969zm0 0" data-original="#000000" class="active-path" data-old_color="#000000" fill="#FFFFFF"/><path d="m217.914062 597.332031c-4.359374 0-8.285156-2.65625-9.898437-6.699219l-42.664063-106.664062c-2.1875-5.472656.46875-11.679688 5.941407-13.867188 5.46875-2.171874 11.667969.476563 13.867187 5.941407l32.753906 81.910156 32.769532-81.910156c2.195312-5.472657 8.40625-8.113281 13.867187-5.941407 5.472657 2.195313 8.128907 8.394532 5.941407 13.867188l-42.667969 106.664062c-1.621094 4.042969-5.546875 6.699219-9.910157 6.699219zm0 0" data-original="#000000" class="active-path" data-old_color="#000000" fill="#FFFFFF"/><path d="m345.871094 597.332031h-21.203125c-17.6875 0-32.085938-14.390625-32.085938-32.09375v-63.808593c0-17.695313 14.398438-32.09375 32.09375-32.09375h42.574219c5.886719 0 10.664062 4.777343 10.664062 10.664062s-4.777343 10.667969-10.664062 10.667969h-42.574219c-5.9375 0-10.761719 4.832031-10.761719 10.761719v63.808593c0 5.933594 4.824219 10.761719 10.761719 10.761719h21.207031c5.898438 0 10.699219-4.800781 10.699219-10.699219v-31.96875c0-5.886719 4.777344-10.664062 10.667969-10.664062 5.886719 0 10.664062 4.777343 10.664062 10.664062v31.96875c0 17.667969-14.367187 32.03125-32.042968 32.03125zm0 0" data-original="#000000" class="active-path" data-old_color="#000000" fill="#FFFFFF"/><path d="m367.25 544.003906h-21.332031c-5.890625 0-10.671875-4.78125-10.671875-10.671875 0-5.886719 4.78125-10.664062 10.671875-10.664062h21.332031c5.886719 0 10.664062 4.777343 10.664062 10.664062 0 5.890625-4.777343 10.671875-10.664062 10.671875zm0 0" data-original="#000000" class="active-path" data-old_color="#000000" fill="#FFFFFF"/></g> </svg>
