<?xml version="1.0"?>
<svg xmlns="http://www.w3.org/2000/svg" height="512px" viewBox="-117 -21 682 682.6646" width="512px"><g><path d="m431.25 639.996094h-426.664062c-5.890626 0-10.671876-4.773438-10.671876-10.660156v-618.667969c0-5.886719 4.78125-10.667969 10.671876-10.667969h330.660156c2.828125 0 5.546875 1.125 7.546875 3.125l96 96c2 2.007812 3.125 4.71875 3.125 7.542969v522.667969c0 5.886718-4.78125 10.660156-10.667969 10.660156zm-416-21.332032h405.335938v-507.582031l-89.753907-89.75h-315.582031zm0 0" data-original="#000000" class="active-path" data-old_color="#000000" fill="#FFFFFF"/><path d="m431.25 117.332031h-96.003906c-5.886719 0-10.664063-4.773437-10.664063-10.664062v-96c0-4.308594 2.605469-8.203125 6.582031-9.855469 3.976563-1.652344 8.574219-.734375 11.628907 2.3125l96 96c3.046875 3.050781 3.964843 7.636719 2.3125 11.625-1.652344 3.980469-5.535157 6.582031-9.855469 6.582031zm-85.332031-21.332031h59.582031l-59.582031-59.585938zm0 0" data-original="#000000" class="active-path" data-old_color="#000000" fill="#FFFFFF"/><path d="m431.25 639.996094h-426.664062c-5.890626 0-10.671876-4.773438-10.671876-10.660156v-192.003907c0-5.886719 4.78125-10.664062 10.671876-10.664062h426.664062c5.886719 0 10.667969 4.777343 10.667969 10.664062v192.003907c0 5.886718-4.78125 10.660156-10.667969 10.660156zm-416-21.332032h405.335938v-170.664062h-405.335938zm0 0" data-original="#000000" class="active-path" data-old_color="#000000" fill="#FFFFFF"/><path d="m249.914062 597.332031h-63.996093c-5.890625 0-10.671875-4.773437-10.671875-10.664062 0-5.886719 4.78125-10.667969 10.671875-10.667969h63.996093c5.890626 0 10.671876 4.78125 10.671876 10.667969 0 5.890625-4.78125 10.664062-10.671876 10.664062zm0 0" data-original="#000000" class="active-path" data-old_color="#000000" fill="#FFFFFF"/><path d="m185.917969 597.332031c-5.890625 0-10.671875-4.773437-10.671875-10.664062v-106.667969c0-5.886719 4.78125-10.664062 10.671875-10.664062 5.886719 0 10.664062 4.777343 10.664062 10.664062v106.667969c0 5.890625-4.777343 10.664062-10.664062 10.664062zm0 0" data-original="#000000" class="active-path" data-old_color="#000000" fill="#FFFFFF"/><path d="m153.914062 213.335938h-85.332031c-5.886719 0-10.667969-4.78125-10.667969-10.664063v-42.671875c0-5.882812 4.78125-10.664062 10.667969-10.664062h85.332031c5.890626 0 10.671876 4.78125 10.671876 10.664062v42.671875c0 5.882813-4.78125 10.664063-10.671876 10.664063zm-74.667968-21.335938h64.003906v-21.332031h-64.003906zm0 0" data-original="#000000" class="active-path" data-old_color="#000000" fill="#FFFFFF"/><path d="m153.914062 256h-85.332031c-5.886719 0-10.667969-4.773438-10.667969-10.664062v-42.664063c0-5.890625 4.78125-10.671875 10.667969-10.671875h85.332031c5.890626 0 10.671876 4.78125 10.671876 10.671875v42.664063c0 5.890624-4.78125 10.664062-10.671876 10.664062zm-74.667968-21.332031h64.003906v-21.332031h-64.003906zm0 0" data-original="#000000" class="active-path" data-old_color="#000000" fill="#FFFFFF"/><path d="m367.25 256h-213.335938c-5.886718 0-10.664062-4.773438-10.664062-10.664062v-42.664063c0-5.890625 4.777344-10.671875 10.664062-10.671875h213.335938c5.886719 0 10.664062 4.78125 10.664062 10.671875v42.664063c0 5.890624-4.777343 10.664062-10.664062 10.664062zm-202.664062-21.332031h191.996093v-21.332031h-191.996093zm0 0" data-original="#000000" class="active-path" data-old_color="#000000" fill="#FFFFFF"/><path d="m153.914062 298.667969h-85.332031c-5.886719 0-10.667969-4.777344-10.667969-10.664063v-42.667968c0-5.886719 4.78125-10.667969 10.667969-10.667969h85.332031c5.890626 0 10.671876 4.78125 10.671876 10.667969v42.667968c0 5.886719-4.78125 10.664063-10.671876 10.664063zm-74.667968-21.335938h64.003906v-21.332031h-64.003906zm0 0" data-original="#000000" class="active-path" data-old_color="#000000" fill="#FFFFFF"/><path d="m367.25 298.667969h-213.335938c-5.886718 0-10.664062-4.777344-10.664062-10.664063v-42.667968c0-5.886719 4.777344-10.667969 10.664062-10.667969h213.335938c5.886719 0 10.664062 4.78125 10.664062 10.667969v42.667968c0 5.886719-4.777343 10.664063-10.664062 10.664063zm-202.664062-21.335938h191.996093v-21.332031h-191.996093zm0 0" data-original="#000000" class="active-path" data-old_color="#000000" fill="#FFFFFF"/><path d="m153.914062 341.332031h-85.332031c-5.886719 0-10.667969-4.777343-10.667969-10.664062v-42.664063c0-5.890625 4.78125-10.671875 10.667969-10.671875h85.332031c5.890626 0 10.671876 4.78125 10.671876 10.671875v42.664063c0 5.886719-4.78125 10.664062-10.671876 10.664062zm-74.667968-21.332031h64.003906v-21.332031h-64.003906zm0 0" data-original="#000000" class="active-path" data-old_color="#000000" fill="#FFFFFF"/><path d="m367.25 341.332031h-213.335938c-5.886718 0-10.664062-4.777343-10.664062-10.664062v-42.664063c0-5.890625 4.777344-10.671875 10.664062-10.671875h213.335938c5.886719 0 10.664062 4.78125 10.664062 10.671875v42.664063c0 5.886719-4.777343 10.664062-10.664062 10.664062zm-202.664062-21.332031h191.996093v-21.332031h-191.996093zm0 0" data-original="#000000" class="active-path" data-old_color="#000000" fill="#FFFFFF"/><path d="m153.914062 384.003906h-85.332031c-5.886719 0-10.667969-4.78125-10.667969-10.671875v-42.664062c0-5.886719 4.78125-10.667969 10.667969-10.667969h85.332031c5.890626 0 10.671876 4.78125 10.671876 10.667969v42.664062c0 5.890625-4.78125 10.671875-10.671876 10.671875zm-74.667968-21.335937h64.003906v-21.335938h-64.003906zm0 0" data-original="#000000" class="active-path" data-old_color="#000000" fill="#FFFFFF"/><path d="m367.25 384.003906h-213.335938c-5.886718 0-10.664062-4.78125-10.664062-10.671875v-42.664062c0-5.886719 4.777344-10.667969 10.664062-10.667969h213.335938c5.886719 0 10.664062 4.78125 10.664062 10.667969v42.664062c0 5.890625-4.777343 10.671875-10.664062 10.671875zm-202.664062-21.335937h191.996093v-21.335938h-191.996093zm0 0" data-original="#000000" class="active-path" data-old_color="#000000" fill="#FFFFFF"/><path d="m68.574219 597.332031c-1.871094 0-3.765625-.488281-5.472657-1.523437-5.054687-3.03125-6.691406-9.578125-3.660156-14.632813l64-106.671875c3.027344-5.050781 9.582032-6.683594 14.632813-3.65625 5.058593 3.027344 6.691406 9.582032 3.660156 14.632813l-64 106.671875c-2.003906 3.335937-5.539063 5.179687-9.160156 5.179687zm0 0" data-original="#000000" class="active-path" data-old_color="#000000" fill="#FFFFFF"/><path d="m132.59375 597.332031c-3.625 0-7.15625-1.84375-9.152344-5.171875l-64-106.667968c-3.03125-5.054688-1.394531-11.601563 3.660156-14.632813 5.058594-3.039063 11.605469-1.398437 14.632813 3.660156l64 106.664063c3.03125 5.054687 1.398437 11.609375-3.660156 14.636718-1.71875 1.023438-3.613281 1.511719-5.480469 1.511719zm0 0" data-original="#000000" class="active-path" data-old_color="#000000" fill="#FFFFFF"/><path d="m340.585938 597.332031h-37.335938c-5.886719 0-10.667969-4.773437-10.667969-10.664062 0-5.886719 4.78125-10.667969 10.667969-10.667969h37.335938c8.816406 0 15.996093-7.179688 15.996093-16s-7.179687-15.996094-15.996093-15.996094h-10.671876c-20.585937 0-37.332031-16.75-37.332031-37.335937 0-20.585938 16.746094-37.332031 37.332031-37.332031h37.335938c5.886719 0 10.664062 4.777343 10.664062 10.664062s-4.777343 10.667969-10.664062 10.667969h-37.335938c-8.820312 0-16 7.175781-16 16 0 8.820312 7.179688 16 16 16h10.671876c20.585937 0 37.328124 16.746093 37.328124 37.332031 0 20.589844-16.742187 37.332031-37.328124 37.332031zm0 0" data-original="#000000" class="active-path" data-old_color="#000000" fill="#FFFFFF"/></g> </svg>
