<?xml version="1.0"?>
<svg xmlns="http://www.w3.org/2000/svg" height="512px" viewBox="-117 -21 682 682.6646" width="512px"><g><path d="m431.25 639.996094h-426.664062c-5.890626 0-10.671876-4.773438-10.671876-10.660156v-618.667969c0-5.886719 4.78125-10.667969 10.671876-10.667969h330.660156c2.828125 0 5.546875 1.125 7.546875 3.125l96 96c2 2.007812 3.125 4.71875 3.125 7.542969v522.667969c0 5.886718-4.78125 10.660156-10.667969 10.660156zm-416-21.332032h405.335938v-507.582031l-89.753907-89.75h-315.582031zm0 0" data-original="#000000" class="active-path" data-old_color="#000000" fill="#FFFFFF"/><path d="m431.25 117.332031h-96.003906c-5.886719 0-10.664063-4.773437-10.664063-10.664062v-96c0-4.308594 2.605469-8.203125 6.582031-9.855469 3.976563-1.652344 8.574219-.734375 11.628907 2.3125l96 96c3.046875 3.050781 3.964843 7.636719 2.3125 11.625-1.652344 3.992188-5.535157 6.582031-9.855469 6.582031zm-85.332031-21.332031h59.582031l-59.582031-59.585938zm0 0" data-original="#000000" class="active-path" data-old_color="#000000" fill="#FFFFFF"/><path d="m431.25 639.996094h-426.664062c-5.890626 0-10.671876-4.773438-10.671876-10.660156v-192.003907c0-5.886719 4.78125-10.664062 10.671876-10.664062h426.664062c5.886719 0 10.667969 4.777343 10.667969 10.664062v192.003907c0 5.886718-4.78125 10.660156-10.667969 10.660156zm-416-21.332032h405.335938v-170.664062h-405.335938zm0 0" data-original="#000000" class="active-path" data-old_color="#000000" fill="#FFFFFF"/><path d="m68.574219 597.332031c-1.871094 0-3.765625-.488281-5.472657-1.523437-5.054687-3.03125-6.691406-9.578125-3.660156-14.632813l64-106.671875c3.027344-5.042968 9.582032-6.671875 14.632813-3.65625 5.058593 3.027344 6.691406 9.582032 3.660156 14.632813l-64 106.671875c-2.003906 3.335937-5.539063 5.179687-9.160156 5.179687zm0 0" data-original="#000000" class="active-path" data-old_color="#000000" fill="#FFFFFF"/><path d="m132.59375 597.332031c-3.625 0-7.15625-1.84375-9.152344-5.171875l-64-106.667968c-3.03125-5.054688-1.394531-11.601563 3.660156-14.632813 5.042969-3.027344 11.605469-1.386719 14.632813 3.660156l64 106.664063c3.03125 5.054687 1.398437 11.609375-3.660156 14.636718-1.71875 1.023438-3.613281 1.511719-5.480469 1.511719zm0 0" data-original="#000000" class="active-path" data-old_color="#000000" fill="#FFFFFF"/><path d="m367.25 597.332031h-64c-5.886719 0-10.667969-4.773437-10.667969-10.664062 0-5.886719 4.78125-10.667969 10.667969-10.667969h64c5.886719 0 10.664062 4.78125 10.664062 10.667969 0 5.890625-4.777343 10.664062-10.664062 10.664062zm0 0" data-original="#000000" class="active-path" data-old_color="#000000" fill="#FFFFFF"/><path d="m303.25 597.332031c-5.886719 0-10.667969-4.773437-10.667969-10.664062v-106.667969c0-5.886719 4.78125-10.664062 10.667969-10.664062 5.890625 0 10.664062 4.777343 10.664062 10.664062v106.667969c0 5.890625-4.773437 10.664062-10.664062 10.664062zm0 0" data-original="#000000" class="active-path" data-old_color="#000000" fill="#FFFFFF"/><path d="m260.585938 597.332031c-5.890626 0-10.671876-4.773437-10.671876-10.664062v-66.5l-22.738281 39.792969c-3.796875 6.644531-14.722656 6.644531-18.519531 0l-22.738281-39.792969v66.5c0 5.890625-4.78125 10.664062-10.671875 10.664062-5.886719 0-10.660156-4.773437-10.660156-10.664062v-106.667969c0-4.839844 3.25-9.0625 7.921874-10.304688 4.660157-1.269531 9.601563.820313 11.996094 5.015626l33.410156 58.460937 33.40625-58.453125c2.402344-4.203125 7.332032-6.28125 12.003907-5.011719 4.671875 1.230469 7.925781 5.460938 7.925781 10.292969v106.667969c0 5.890625-4.78125 10.664062-10.664062 10.664062zm0 0" data-original="#000000" class="active-path" data-old_color="#000000" fill="#FFFFFF"/><path d="m132.582031 341.332031c-3.050781 0-6.089843-1.308593-8.203125-3.839843l-53.328125-63.996094c-3.296875-3.960938-3.296875-9.707032 0-13.652344l53.328125-64.003906c3.78125-4.523438 10.5-5.128906 15.019532-1.363282 4.523437 3.773438 5.140624 10.492188 1.367187 15.019532l-47.625 57.171875 47.644531 57.175781c3.773438 4.519531 3.160156 11.253906-1.367187 15.015625-2 1.660156-4.421875 2.472656-6.835938 2.472656zm0 0" data-original="#000000" class="active-path" data-old_color="#000000" fill="#FFFFFF"/><path d="m303.25 341.332031c-2.410156 0-4.832031-.8125-6.824219-2.472656-4.527343-3.777344-5.144531-10.496094-1.367187-15.015625l47.636718-57.175781-47.648437-57.171875c-3.777344-4.527344-3.160156-11.253906 1.363281-15.019532 4.527344-3.765624 11.253906-3.160156 15.019532 1.363282l53.335937 64.003906c3.292969 3.953125 3.292969 9.707031 0 13.652344l-53.335937 63.996094c-2.089844 2.539062-5.132813 3.839843-8.179688 3.839843zm0 0" data-original="#000000" class="active-path" data-old_color="#000000" fill="#FFFFFF"/><path d="m185.90625 341.332031c-1.601562 0-3.230469-.363281-4.769531-1.117187-5.269531-2.632813-7.402344-9.042969-4.765625-14.316406l64-128c2.628906-5.277344 9.042968-7.402344 14.308594-4.765626 5.273437 2.632813 7.410156 9.042969 4.773437 14.3125l-64 128.003907c-1.871094 3.730469-5.636719 5.882812-9.546875 5.882812zm0 0" data-original="#000000" class="active-path" data-old_color="#000000" fill="#FFFFFF"/></g> </svg>
