<?xml version="1.0"?>
<svg xmlns="http://www.w3.org/2000/svg" height="512px" viewBox="-117 -21 682 682.66784" width="512px"><g><path d="m431.25 640h-426.664062c-5.886719 0-10.667969-4.777344-10.667969-10.667969v-618.664062c0-5.882813 4.78125-10.66406275 10.667969-10.66406275h330.667968c2.820313 0 5.539063 1.12109375 7.539063 3.12499975l96 96c2 2.003906 3.125 4.714844 3.125 7.539063v522.664062c0 5.890625-4.78125 10.667969-10.667969 10.667969zm-415.996094-21.332031h405.332032v-507.578125l-89.753907-89.75h-315.578125zm0 0" data-original="#000000" class="active-path" data-old_color="#000000" fill="#FFFFFF"/><path d="m431.25 117.339844h-95.996094c-5.890625 0-10.671875-4.78125-10.671875-10.671875v-96c0-4.304688 2.605469-8.195313 6.582031-9.851563 3.992188-1.65625 8.574219-.7460935 11.628907 2.3125l96 96c3.050781 3.054688 3.964843 7.636719 2.3125 11.628906-1.652344 3.976563-5.546875 6.582032-9.855469 6.582032zm-85.332031-21.335938h59.582031l-59.582031-59.582031zm0 0" data-original="#000000" class="active-path" data-old_color="#000000" fill="#FFFFFF"/><path d="m431.25 640h-426.664062c-5.886719 0-10.667969-4.777344-10.667969-10.667969v-191.996093c0-5.886719 4.78125-10.667969 10.667969-10.667969h426.664062c5.886719 0 10.667969 4.78125 10.667969 10.667969v191.996093c0 5.890625-4.78125 10.667969-10.667969 10.667969zm-415.996094-21.332031h405.332032v-170.667969h-405.332032zm0 0" data-original="#000000" class="active-path" data-old_color="#000000" fill="#FFFFFF"/><path d="m217.917969 405.335938c-29.40625 0-53.332031-23.925782-53.332031-53.335938v-42.664062c0-5.890626 4.777343-10.664063 10.667968-10.664063h85.332032c5.886718 0 10.664062 4.773437 10.664062 10.664063v42.664062c0 29.410156-23.925781 53.335938-53.332031 53.335938zm-32-85.332032v31.996094c0 17.648438 14.355469 32 32 32s32-14.351562 32-32v-31.996094zm0 0" data-original="#000000" class="active-path" data-old_color="#000000" fill="#FFFFFF"/><path d="m228.582031 362.667969h-21.332031c-5.886719 0-10.664062-4.777344-10.664062-10.667969 0-5.882812 4.777343-10.664062 10.664062-10.664062h21.332031c5.890625 0 10.671875 4.78125 10.671875 10.664062 0 5.890625-4.78125 10.667969-10.671875 10.667969zm0 0" data-original="#000000" class="active-path" data-old_color="#000000" fill="#FFFFFF"/><path d="m217.917969 320.003906c-5.886719 0-10.667969-4.78125-10.667969-10.667968v-191.996094c0-5.890625 4.78125-10.671875 10.667969-10.671875 5.890625 0 10.664062 4.78125 10.664062 10.671875v191.996094c0 5.886718-4.773437 10.667968-10.664062 10.667968zm0 0" data-original="#000000" class="active-path" data-old_color="#000000" fill="#FFFFFF"/><path d="m249.917969 266.667969h-64c-5.890625 0-10.664063-4.773438-10.664063-10.664063 0-5.886718 4.773438-10.667968 10.664063-10.667968h64c5.886719 0 10.667969 4.78125 10.667969 10.667968 0 5.890625-4.78125 10.664063-10.667969 10.664063zm0 0" data-original="#000000" class="active-path" data-old_color="#000000" fill="#FFFFFF"/><path d="m249.917969 213.339844h-64c-5.890625 0-10.664063-4.78125-10.664063-10.667969 0-5.890625 4.773438-10.671875 10.664063-10.671875h64c5.886719 0 10.667969 4.78125 10.667969 10.671875 0 5.886719-4.78125 10.667969-10.667969 10.667969zm0 0" data-original="#000000" class="active-path" data-old_color="#000000" fill="#FFFFFF"/><path d="m249.917969 160.003906h-64c-5.890625 0-10.664063-4.78125-10.664063-10.667968 0-5.890626 4.773438-10.664063 10.664063-10.664063h64c5.886719 0 10.667969 4.773437 10.667969 10.664063 0 5.886718-4.78125 10.667968-10.667969 10.667968zm0 0" data-original="#000000" class="active-path" data-old_color="#000000" fill="#FFFFFF"/><path d="m132.582031 597.335938h-63.996093c-3.839844 0-7.394532-2.070313-9.277344-5.410157-1.890625-3.339843-1.847656-7.445312.136718-10.742187l54.300782-90.515625h-45.160156c-5.890626 0-10.664063-4.777344-10.664063-10.664063 0-5.890625 4.773437-10.671875 10.664063-10.671875h63.996093c3.84375 0 7.394531 2.070313 9.285157 5.410157 1.886718 3.339843 1.84375 7.449218-.136719 10.742187l-54.308594 90.519531h45.160156c5.890625 0 10.671875 4.773438 10.671875 10.664063 0 5.886719-4.78125 10.667969-10.671875 10.667969zm0 0" data-original="#000000" class="active-path" data-old_color="#000000" fill="#FFFFFF"/><path d="m303.25 597.335938c-5.886719 0-10.667969-4.78125-10.667969-10.667969v-106.664063c0-5.890625 4.78125-10.671875 10.667969-10.671875 5.890625 0 10.664062 4.78125 10.664062 10.671875v106.664063c0 5.886719-4.773437 10.667969-10.664062 10.667969zm0 0" data-original="#000000" class="active-path" data-old_color="#000000" fill="#FFFFFF"/><path d="m335.253906 554.667969h-32.003906c-5.886719 0-10.667969-4.777344-10.667969-10.667969v-63.996094c0-5.890625 4.78125-10.671875 10.667969-10.671875h32.003906c23.527344 0 42.664063 19.136719 42.664063 42.667969 0 23.535156-19.136719 42.667969-42.664063 42.667969zm-21.339844-21.332031h21.339844c11.761719 0 21.332032-9.570313 21.332032-21.335938 0-11.761719-9.570313-21.332031-21.332032-21.332031h-21.339844zm0 0" data-original="#000000" class="active-path" data-old_color="#000000" fill="#FFFFFF"/><path d="m217.917969 597.335938c-5.886719 0-10.667969-4.78125-10.667969-10.667969v-106.664063c0-5.890625 4.78125-10.671875 10.667969-10.671875 5.890625 0 10.664062 4.78125 10.664062 10.671875v106.664063c0 5.886719-4.773437 10.667969-10.664062 10.667969zm0 0" data-original="#000000" class="active-path" data-old_color="#000000" fill="#FFFFFF"/><path d="m249.917969 597.335938h-64c-5.890625 0-10.664063-4.78125-10.664063-10.667969 0-5.890625 4.773438-10.664063 10.664063-10.664063h64c5.886719 0 10.667969 4.773438 10.667969 10.664063 0 5.886719-4.78125 10.667969-10.667969 10.667969zm0 0" data-original="#000000" class="active-path" data-old_color="#000000" fill="#FFFFFF"/><path d="m249.917969 490.667969h-64c-5.890625 0-10.664063-4.777344-10.664063-10.664063 0-5.890625 4.773438-10.671875 10.664063-10.671875h64c5.886719 0 10.667969 4.78125 10.667969 10.671875 0 5.886719-4.78125 10.664063-10.667969 10.664063zm0 0" data-original="#000000" class="active-path" data-old_color="#000000" fill="#FFFFFF"/></g> </svg>
